<svg width="128" height="128" viewBox="0 0 128 128" fill="none" xmlns="http://www.w3.org/2000/svg">
<rect width="128" height="128" rx="16" fill="#030712"/>
<path d="M10.6138 61.2108C9.64113 60.135 9.15479 58.59 9.15479 56.5759V55.1529H12.8514V56.8388C12.8514 58.4474 13.525 59.2516 14.8724 59.2516C15.1482 59.2724 15.4253 59.2328 15.6843 59.1358C15.9434 59.0388 16.1783 58.8865 16.3726 58.6897C16.7656 58.1372 16.9484 57.4626 16.8882 56.7873C16.9081 55.8217 16.662 54.8692 16.1767 54.0342C15.4502 52.9544 14.5676 51.9884 13.5577 51.1677C12.2319 50.0777 11.093 48.7786 10.1859 47.3216C9.53681 46.13 9.20649 44.791 9.22696 43.4343C9.22696 41.4682 9.71846 39.9456 10.7015 38.8664C11.6845 37.7871 13.1349 37.2475 15.0528 37.2475C16.926 37.2475 18.3404 37.7871 19.2959 38.8664C20.2548 39.9439 20.7343 41.4854 20.7343 43.5064V44.5376H17.0429V43.2538C17.0953 42.5905 16.9128 41.9298 16.5273 41.3875C16.3453 41.1858 16.1198 41.0282 15.868 40.9264C15.6161 40.8245 15.3444 40.7812 15.0734 40.7997C13.7708 40.7997 13.1194 41.5937 13.1194 43.1816C13.1225 44.0754 13.38 44.9499 13.8619 45.7027C14.6057 46.7691 15.496 47.7254 16.5067 48.5435C17.8505 49.6262 18.9936 50.9368 19.8836 52.4153C20.5223 53.6816 20.8392 55.0858 20.8065 56.5037C20.8065 58.5384 20.3029 60.1006 19.2959 61.1901C18.2647 62.2831 16.8263 62.8245 14.9084 62.8245C12.9906 62.8245 11.5831 62.2883 10.6138 61.2108Z" fill="#F9FAFB"/>
<path d="M24.3948 61.2108C23.4014 60.135 22.9048 58.5883 22.9048 56.5707V37.6033H26.8127V56.8388C26.7528 57.4964 26.9362 58.1532 27.3283 58.6845C27.5181 58.8805 27.7483 59.0328 28.003 59.1308C28.2576 59.2287 28.5306 59.27 28.8028 59.2516C29.076 59.2746 29.3509 59.2375 29.6082 59.1431C29.8656 59.0487 30.0992 58.8993 30.2928 58.7051C30.6875 58.1672 30.871 57.5031 30.8083 56.8388V37.6033H34.5771V56.5759C34.5771 58.5866 34.0787 60.1332 33.082 61.2159C32.0852 62.2986 30.6399 62.8348 28.7461 62.8245C26.8385 62.8245 25.3881 62.2866 24.3948 61.2108Z" fill="#F9FAFB"/>
<path d="M37.3247 37.6033H43.1196C45.1303 37.6033 46.5979 38.0707 47.5225 39.0056C48.4471 39.9405 48.9094 41.3789 48.9094 43.3208V44.8675C48.9094 47.4453 48.0501 49.0796 46.3316 49.7705V49.8375C46.7728 49.9591 47.1816 50.1771 47.5284 50.4757C47.8752 50.7744 48.1514 51.1463 48.3371 51.5646C48.7718 52.684 48.9719 53.8808 48.9248 55.0807V59.4527C48.9183 60.0274 48.9406 60.6022 48.9918 61.1747C49.0496 61.6229 49.1765 62.0594 49.3682 62.4687H45.3932C45.2591 62.1013 45.1624 61.7213 45.1045 61.3345C45.0474 60.6969 45.0251 60.0566 45.0375 59.4166V54.8694C45.0375 53.73 44.8519 52.936 44.4858 52.4875C44.2395 52.2398 43.9406 52.0505 43.6114 51.9336C43.2821 51.8167 42.9309 51.7752 42.5834 51.8121H41.2327V62.4687H37.3247V37.6033ZM42.6659 48.2599C42.9846 48.2844 43.3049 48.2436 43.6072 48.1398C43.9096 48.0361 44.1875 47.8717 44.424 47.6567C44.8718 47.0813 45.0821 46.3562 45.0117 45.6305V43.7126C45.069 43.0265 44.9007 42.3404 44.5322 41.7587C44.3447 41.5475 44.1106 41.3831 43.8483 41.2784C43.5861 41.1736 43.303 41.1316 43.0217 41.1555H41.2327V48.2599H42.6659Z" fill="#F9FAFB"/>
<path d="M50.4717 37.6033H54.4157L56.9935 56.8955H57.0657L59.6435 37.6033H63.2524L59.4218 62.4687H54.2353L50.4717 37.6033Z" fill="#F9FAFB"/>
<path d="M65.0724 37.6033H68.9597V62.4687H65.0518L65.0724 37.6033Z" fill="#F9FAFB"/>
<path d="M70.8623 37.6033H74.8063L77.3841 56.8955H77.4563L80.0341 37.6033H83.6431L79.8795 62.4687H74.6311L70.8623 37.6033Z" fill="#F9FAFB"/>
<path d="M85.4575 37.6032H89.3655V62.4687H85.4575V37.6032Z" fill="#F9FAFB"/>
<path d="M92.2834 37.6033H97.1864L100.986 52.4875H101.058V37.6033H104.533V62.4687H100.522L95.8305 44.3159H95.7686V62.4687H92.2886L92.2834 37.6033Z" fill="#F9FAFB"/>
<path d="M108.658 61.2108C107.664 60.135 107.166 58.5883 107.163 56.5707V43.5013C107.163 41.4854 107.678 39.9439 108.658 38.8612C109.637 37.7786 111.101 37.2475 112.994 37.2475C114.886 37.2475 116.334 37.7889 117.329 38.8664C118.324 39.9439 118.819 41.4854 118.819 43.5064V45.6357H115.128V43.2538C115.128 41.6212 114.453 40.8032 113.102 40.7997C111.751 40.7963 111.076 41.6143 111.076 43.2538V56.8388C111.076 58.4474 111.751 59.2516 113.102 59.2516C114.453 59.2516 115.128 58.4474 115.128 56.8388V51.9926H113.174V48.4403H118.845V56.5759C118.845 58.5866 118.349 60.1332 117.355 61.2159C116.362 62.2986 114.917 62.8365 113.019 62.8296C111.112 62.8262 109.658 62.2866 108.658 61.2108Z" fill="#F9FAFB"/>
<path d="M10.6087 89.1127C9.63941 88.0352 9.15479 86.4937 9.15479 84.4727V83.0549H12.8462V84.7614C12.8462 86.3734 13.5216 87.1794 14.8724 87.1794C15.1519 87.1987 15.4322 87.1561 15.6934 87.0545C15.9545 86.9529 16.19 86.7948 16.3829 86.5917C16.7735 86.038 16.956 85.3643 16.8985 84.6892C16.9122 83.7217 16.6589 82.7691 16.1664 81.9362C15.436 80.8593 14.5499 79.8968 13.5371 79.0799C12.2106 77.9853 11.0702 76.6829 10.1601 75.2236C9.50951 74.0307 9.17912 72.6896 9.20119 71.3311C9.20119 69.3651 9.69956 67.8442 10.6963 66.7684C11.6931 65.6926 13.1366 65.1529 15.027 65.1495C16.9002 65.1495 18.3163 65.6891 19.2752 66.7684C20.2342 67.8476 20.7137 69.3943 20.7137 71.4084V72.4395H17.0377V71.1558C17.0867 70.4928 16.9045 69.8333 16.5221 69.2895C16.3391 69.0877 16.1127 68.93 15.86 68.8282C15.6074 68.7264 15.3349 68.6832 15.0631 68.7017C13.7639 68.7017 13.1091 69.4957 13.1091 71.0836C13.1054 71.9769 13.3596 72.8523 13.8412 73.6047C14.5847 74.6729 15.4751 75.631 16.4861 76.4506C17.8311 77.5321 18.9743 78.8429 19.863 80.3224C20.5088 81.5851 20.8329 82.9877 20.8065 84.4057C20.8065 86.4404 20.3029 88.0043 19.2959 89.0973C18.2888 90.1903 16.8263 90.735 14.9084 90.7316C12.9974 90.7316 11.5642 90.192 10.6087 89.1127Z" fill="#F9FAFB"/>
<path d="M26.1011 69.0574H22.0127V65.5052H34.0923V69.0574H30.0039V90.3759H26.1011V69.0574Z" fill="#F9FAFB"/>
<path d="M37.0779 89.0973C36.0468 88.0078 35.5312 86.4611 35.5312 84.4573V71.4136C35.5312 69.4235 36.0468 67.8872 37.0779 66.7735C38.1091 65.6599 39.5629 65.1392 41.4808 65.1392C43.3987 65.1392 44.8681 65.6857 45.8889 66.7735C46.9097 67.8614 47.4355 69.4029 47.4355 71.4136V84.4779C47.4355 86.4679 46.92 88.0146 45.8889 89.1179C44.8577 90.2212 43.3884 90.766 41.4808 90.7523C39.5629 90.7385 38.0953 90.1869 37.0779 89.0973ZM43.4915 84.7254V71.1558C43.4915 69.5232 42.8161 68.7052 41.4654 68.7017C40.1146 68.6983 39.4444 69.5163 39.4547 71.1558V84.7254C39.4547 86.358 40.1301 87.176 41.4808 87.1794C42.8316 87.1829 43.5018 86.3648 43.4915 84.7254Z" fill="#F9FAFB"/>
<path d="M50.0442 65.5053H55.8339C57.8446 65.5053 59.3123 65.9727 60.2368 66.9076C61.1648 67.8459 61.6237 69.2843 61.6237 71.228V72.7747C61.6237 75.3593 60.7644 76.9937 59.0459 77.6776V77.7498C59.4902 77.8681 59.9017 78.086 60.2492 78.387C60.5967 78.6881 60.8711 79.0643 61.0514 79.4873C61.4868 80.6083 61.6869 81.8069 61.6391 83.0085V87.3753C61.6339 87.9502 61.658 88.5249 61.7113 89.0973C61.7607 89.5464 61.8807 89.9849 62.0671 90.3965H58.0869C57.9543 90.0272 57.8593 89.6455 57.8034 89.2571C57.7438 88.6197 57.7197 87.9794 57.7312 87.3392V82.7559C57.7312 81.6217 57.5508 80.8277 57.1796 80.3792C56.8083 79.9306 56.1794 79.7038 55.2823 79.7038H53.9315V90.3604H50.0442V65.5053ZM55.3493 76.1619C55.6737 76.1879 56 76.1459 56.3071 76.0385C56.6143 75.931 56.8957 75.7606 57.1331 75.5381C57.5764 74.9626 57.7846 74.2402 57.7157 73.5171V71.6147C57.773 70.9301 57.6046 70.2456 57.2363 69.6658C57.0503 69.4525 56.8165 69.2861 56.554 69.1804C56.2914 69.0747 56.0076 69.0325 55.7257 69.0575H53.9521V76.1619H55.3493Z" fill="#F9FAFB"/>
<path d="M64.3611 65.5053H69.9395L72.4245 83.3076H72.4966L74.9816 65.5053H80.56V90.3759H76.8634V71.5476H76.7964L73.9505 90.3759H70.6819L67.8411 71.5476H67.7689V90.3759H64.3611V65.5053Z" fill="#F9FAFB"/>
<path d="M84.2562 89.1127C83.2817 88.0352 82.7971 86.4937 82.7971 84.4727V83.0549H86.4937V84.7614C86.4937 86.3734 87.1691 87.1794 88.5198 87.1794C88.7986 87.1987 89.0782 87.156 89.3385 87.0543C89.5988 86.9527 89.8333 86.7947 90.0253 86.5917C90.4183 86.0392 90.6011 85.3645 90.5408 84.6892C90.5599 83.7244 90.3157 82.7726 89.8345 81.9361C89.1041 80.8593 88.218 79.8968 87.2052 79.0799C85.8758 77.9882 84.735 76.6853 83.8282 75.2236C83.1776 74.0307 82.8472 72.6896 82.8693 71.3311C82.8693 69.3651 83.366 67.8442 84.3593 66.7684C85.3526 65.6926 86.7979 65.1529 88.6951 65.1495C90.5666 65.1495 91.9844 65.6651 92.9382 66.7684C93.892 67.8717 94.3818 69.3926 94.3818 71.4084V72.4395H90.6852V71.1558C90.7368 70.4925 90.5543 69.8322 90.1696 69.2895C89.9876 69.0878 89.7622 68.9301 89.5103 68.8283C89.2585 68.7265 88.9868 68.6832 88.7158 68.7017C87.4097 68.7017 86.7583 69.4957 86.7618 71.0836C86.7588 71.9761 87.011 72.8508 87.4887 73.6047C88.2328 74.6741 89.125 75.6323 90.1387 76.4506C91.4823 77.5321 92.6239 78.8429 93.5105 80.3224C94.1516 81.5861 94.4687 82.9892 94.4333 84.4057C94.4333 86.4404 93.9298 88.0043 92.9227 89.0973C91.9174 90.1851 90.4583 90.7316 88.5353 90.7316C86.6123 90.7316 85.2512 90.1903 84.2562 89.1127Z" fill="#F9FAFB"/>
</svg>
