<svg width="1600" height="1912" viewBox="0 0 1600 1912" fill="none" xmlns="http://www.w3.org/2000/svg">
<rect width="1600" height="1911.89" fill="#030712"/>
<path d="M1290.71 1337.73L1299.57 1349.3C1304.04 1350.22 1304.93 1353.59 1305.3 1357.43C1304.74 1363.95 1306.55 1370.87 1302.27 1376.81C1301.35 1384.33 1294 1388.78 1292.99 1396.27C1292.71 1397.31 1292.42 1398.36 1292.12 1399.4C1291.16 1408.57 1291.56 1417.72 1291.97 1426.89L1291.99 1427.41C1291.97 1430.91 1291.49 1434.23 1288.39 1436.5C1285.84 1438.93 1284.28 1442.21 1284.01 1445.72C1283.74 1446.64 1283.43 1447.54 1283.09 1448.44C1282.93 1451.41 1280.15 1454.74 1284.38 1457.09C1284.88 1457.77 1285.17 1458.59 1285.19 1459.43C1285.22 1460.27 1284.98 1461.1 1284.52 1461.81C1287.66 1463.82 1288.84 1466.27 1285.95 1469.67C1285.31 1469.89 1284.68 1470.14 1284.07 1470.43C1284.14 1471.16 1283.98 1471.9 1283.61 1472.54C1274.97 1474.08 1278.26 1478.59 1279.75 1482.66C1280.2 1483.25 1280.68 1483.82 1281.19 1484.35C1282.25 1485.48 1282.95 1486.89 1283.22 1488.42C1283.29 1492.82 1280.77 1495.83 1277.79 1498.56C1277.82 1498.64 1277.85 1498.7 1277.88 1498.77C1280.93 1500.35 1282.44 1503.39 1283.72 1506.65C1286.44 1513.3 1283.48 1520.07 1284.13 1526.75C1280.07 1530.3 1284.21 1533.75 1284.28 1537.25C1284.73 1537.34 1285.19 1537.39 1285.65 1537.4C1290.18 1540.79 1290.77 1544.24 1285.82 1547.78C1284.68 1547.95 1283.52 1547.95 1282.39 1547.78H1282.28C1279.4 1549.57 1276.2 1550.78 1272.86 1551.35C1272.5 1551.33 1272.17 1551.24 1271.84 1551.24C1267.17 1557.89 1259.12 1559.21 1252.55 1562.81L1250.48 1565.02C1250.1 1565.52 1249.64 1565.95 1249.12 1566.31C1249.3 1566.63 1249.42 1566.99 1249.46 1567.36C1249.51 1567.73 1249.48 1568.11 1249.37 1568.47C1249.27 1568.83 1249.1 1569.16 1248.86 1569.45C1248.63 1569.75 1248.34 1569.99 1248.01 1570.17C1248.11 1570.72 1248.2 1571.27 1248.31 1571.82C1248.42 1573.95 1248.55 1576.09 1248.67 1578.25C1248.32 1578.41 1247.99 1578.6 1247.68 1578.81C1247.78 1580.85 1247.87 1582.91 1247.97 1584.95C1248.14 1585.54 1248.24 1586.14 1248.26 1586.74C1248.59 1586.75 1248.93 1586.77 1249.26 1586.82C1251.5 1588.16 1252.19 1589.89 1250.67 1592.21C1250.46 1592.9 1250.24 1593.6 1250.01 1594.29C1249.56 1602.08 1245.34 1608.26 1241.48 1614.69C1239.1 1616.32 1240.63 1619.23 1239.34 1621.24C1239.33 1623.62 1239.28 1625.99 1239.2 1628.36L1239.32 1641.79C1239.18 1643.13 1239.04 1644.53 1238.88 1645.82C1239.17 1647.08 1239.15 1648.39 1238.83 1649.64C1238.51 1650.89 1237.9 1652.05 1237.04 1653.02L1236.31 1659.24C1234.39 1673.01 1232.47 1686.75 1230.55 1700.47C1230.33 1701.76 1230.12 1703.04 1229.91 1704.33C1226.95 1713.97 1217.46 1713.05 1210.54 1716.29C1204.21 1720.64 1197.89 1724.98 1193.56 1731.55C1191.76 1734.87 1188.54 1735.84 1185.19 1736.61L1184.22 1736.14H1183.14C1179.66 1742.61 1173.48 1740.14 1168.21 1740.66C1161.02 1742.96 1153.3 1742.96 1146.11 1740.66C1132.42 1741.11 1119.47 1745.02 1106.7 1749.66L1106.62 1749.51C1103.66 1752.69 1100.58 1755.7 1097.23 1749.74L1093.38 1741.91H1091.02L1088.37 1738.36C1086.01 1737.82 1083.4 1738 1081.69 1735.78C1078.61 1735.53 1075.39 1735.84 1072.92 1733.37L1048.15 1733.03L1045.74 1733.11C1041.09 1737.29 1035.38 1734.87 1030.16 1735.6C1029.89 1735.82 1029.58 1735.98 1029.24 1736.07C1028.91 1736.15 1028.56 1736.16 1028.22 1736.09L1017.26 1740.49H1017.16C1017.3 1740.59 1017.43 1740.69 1017.56 1740.8C1017.65 1749.42 1013.83 1757.04 1010.84 1764.85C1006.34 1773.59 1004.02 1783.18 1000.43 1792.26C999.578 1792.57 998.936 1791.83 998.434 1791.52C998.5 1791.86 998.655 1792.18 998.884 1792.44C998.794 1793.6 998.794 1794.77 998.884 1795.93C999.121 1797.72 999.121 1799.54 998.884 1801.33C998.742 1802.71 998.229 1804.03 997.398 1805.15C996.567 1806.27 995.45 1807.14 994.165 1807.67L990.242 1810.24C989.978 1810.85 989.763 1811.48 989.599 1812.13C988.931 1814.32 987.658 1815.51 985.214 1814.79L982.758 1816.27L981.729 1816.4H981.408C981.238 1816.78 981.026 1817.14 980.778 1817.48C975.505 1821.65 968.934 1822.07 962.775 1823.74C952.808 1824.81 946.88 1833.71 937.878 1836.6C928.864 1842.96 927.076 1851.74 929.378 1861.88L929.147 1863.4C929.047 1864 928.987 1864.61 928.967 1865.22C929.661 1868.19 930.69 1871.19 928.272 1873.77C928.049 1874.34 927.764 1874.9 927.424 1875.41C927.023 1875.74 926.534 1875.93 926.021 1875.98C925.507 1876.02 924.992 1875.91 924.543 1875.66C921.058 1874.02 918.679 1878.04 915.4 1877.48L915.258 1877.38V1877.51H915.361C913.985 1880.58 910.822 1878.9 908.7 1879.99C902.348 1881.83 895.841 1880.39 889.411 1880.84H889.089C889.037 1881.09 888.911 1881.32 888.728 1881.5C888.545 1881.68 888.312 1881.8 888.061 1881.84C886.521 1881.58 884.943 1881.68 883.447 1882.13C881.952 1882.57 880.578 1883.35 879.432 1884.41L878.917 1883.81L877.451 1884.4C877.259 1884.85 877.078 1885.3 876.886 1885.76H876.963C878.403 1890.12 875.291 1889.79 872.719 1889.79L871.613 1889.69L870.52 1889.87L861.814 1888.81C861.35 1889.09 860.859 1889.33 860.348 1889.51C855.742 1891.63 850.829 1893.01 845.791 1893.6L845.881 1892.68L843.451 1893.11L829.923 1895.19H816.613L809.592 1895.89L807.148 1893.98C807.264 1893.09 807.393 1892.25 807.508 1891.41C801.863 1895.22 796.205 1894.15 790.534 1891.23C788.348 1890.99 785.776 1891.64 784.593 1888.86L773.829 1879.28L761.857 1875.55C749.152 1873.5 748.149 1872.42 751.261 1864.16C753.82 1862.76 756.019 1863.35 758.192 1865.16C765.02 1870.85 771.335 1869.54 777.211 1863.54L780.838 1856.01C781.596 1851.57 784.888 1848.14 786.174 1843.86C791.614 1828.48 797.465 1813.19 798.044 1796.57C797.557 1794.12 796.548 1791.79 795.083 1789.76C793.618 1787.73 791.733 1786.04 789.556 1784.8C783.659 1782.08 778.372 1778.2 774.009 1773.39C773.456 1773.49 772.903 1773.63 772.35 1773.63L769.496 1769.77C769.432 1769.84 769.372 1769.91 769.316 1769.98C765.162 1770.3 764.056 1767.11 762.77 1764.22C761.523 1760.56 757.729 1758.06 758.102 1753.7C757.879 1753.53 757.716 1753.29 757.64 1753.02C757.563 1752.75 757.576 1752.47 757.678 1752.21C751.441 1750.6 752.868 1744.5 750.811 1740.45C748.676 1739.35 749.152 1737.35 749.345 1735.49C749.705 1729.8 749.023 1724.43 744.895 1720.06C743.224 1713.05 742.786 1705.6 737.861 1699.71C733.682 1692.99 729.875 1686.11 728.062 1678.31C728.384 1676.54 728.062 1674.55 728.911 1672.99L728.679 1670.93C728.731 1670.75 728.821 1670.57 728.821 1670.38C727.972 1670.38 726.75 1670.77 726.249 1670.38L726.156 1669.92C725.257 1665.47 724.359 1661.03 726.995 1656.77C727.548 1656.76 728.102 1656.81 728.641 1656.94L728.564 1656.56L728.795 1654.95C728.112 1653.39 727.736 1651.72 727.689 1650.02C727.998 1645.06 730.325 1640.98 733.54 1637.34L738.221 1627.78C739.67 1621.83 741.119 1615.87 742.568 1609.91C742.653 1603.14 742.696 1596.37 742.696 1589.61L740.497 1578.4C739.571 1573.94 738.654 1569.47 737.745 1565L729.49 1548.9C726.352 1546.05 724.95 1541.54 720.642 1539.89C718.237 1539.25 716.231 1538.17 715.666 1535.48L713.351 1532.91L704.169 1526.74C703.558 1526.97 702.924 1527.13 702.279 1527.21C694.422 1525.35 689.818 1519.87 686.384 1513.07C686.13 1512.37 685.919 1511.65 685.754 1510.92C682.059 1505.57 678.36 1500.23 674.656 1494.89C674.74 1494.25 674.74 1493.61 674.656 1492.97C672.367 1491.2 672.753 1488.48 672.367 1486.05C672.908 1481.72 671.686 1477.09 674.194 1473.06C673.988 1471.51 673.666 1469.95 673.692 1468.37C673.718 1466.79 673.795 1465.22 673.795 1463.64C674.374 1460.74 675.84 1458.73 679.003 1458.4C679.56 1458.54 680.1 1458.74 680.61 1459C679.955 1455.97 681.112 1452.98 681.408 1449.99C681.233 1449.66 681.164 1449.28 681.21 1448.91C681.256 1448.54 681.415 1448.19 681.665 1447.91C682.398 1441 680.765 1434.36 679.479 1427.66C679.234 1427.49 679.046 1427.25 678.943 1426.97C678.839 1426.69 678.824 1426.39 678.9 1426.1C678.197 1425.96 677.508 1425.75 676.843 1425.48C675.698 1422.26 673.1 1420.52 670.259 1419.05C669.976 1418.28 669.68 1417.52 669.397 1416.76C668.947 1415.98 668.497 1415.2 668.034 1414.41C667.635 1414.75 667.204 1415.05 666.748 1415.3C657.506 1413.01 655.088 1404.99 652.858 1397.6L652.744 1397.22C650.93 1391.27 649.525 1385.21 648.539 1379.07C648.719 1377.94 648.809 1376.81 648.937 1375.68C647.554 1370.76 647.937 1365.52 650.018 1360.85C650.146 1359.18 650.275 1357.52 650.468 1355.86C650.733 1354.21 651.409 1352.65 652.435 1351.32C656.512 1345.81 658.505 1339.34 660.871 1333.04C661.064 1332.64 661.27 1332.2 661.463 1331.75L661.593 1331.47C661.872 1330.86 662.116 1330.32 662.35 1329.73L663.469 1323.3C663.394 1321.98 663.112 1320.68 662.633 1319.44C662.491 1317.97 662.491 1316.5 662.491 1315.02V1315.02C663.43 1308.95 663.109 1303.15 659.045 1298.1C657.733 1293.45 656.229 1288.86 655.329 1284.13C656.113 1280.11 655.83 1275.94 656.615 1271.91L656.422 1268.88C656.447 1268.76 656.512 1268.65 656.512 1268.52C656.351 1268.58 656.182 1268.62 656.01 1268.64C651.586 1265.02 653.464 1259.78 652.512 1255.29C652.602 1254.14 652.731 1253.01 652.731 1251.88H652.59L650.738 1244.16C650.121 1243.36 649.378 1242.65 648.539 1242.08C646.636 1239.8 644.938 1237.46 644.938 1234.36H646.005L641.003 1227.83L636.502 1223.34C634.509 1222.33 632.722 1221.2 632.49 1218.62L629.777 1214.36C626.292 1214.41 624.016 1212.85 623.141 1209.39C622.482 1208.56 622.097 1207.55 622.037 1206.49C621.977 1205.43 622.246 1204.38 622.807 1203.48L622.653 1203.4C620.981 1199.86 616.994 1200.07 614.255 1198.26L611.683 1196.67C610.933 1195.97 610.382 1195.09 610.089 1194.1V1193.09C606.077 1189.01 606.089 1183.4 605.356 1178.08C604.598 1174.34 603.826 1170.59 603.067 1166.86L601.023 1163.15C600.631 1163.04 600.251 1162.9 599.891 1162.71L593.821 1155.39L587.07 1151.74C582.762 1150.61 579.342 1148.78 579.792 1144.18C578.13 1143.08 576.894 1141.44 576.287 1139.54C573.966 1136.45 572.909 1132.59 573.336 1128.74C572.642 1126.49 571.935 1124.24 571.24 1121.97C571.028 1121.78 570.887 1121.52 570.838 1121.24C570.789 1120.96 570.836 1120.67 570.97 1120.42C567.627 1120.55 565.891 1118.4 564.425 1115.83L557.918 1110.68C554.124 1107.88 549.61 1105.91 546.948 1101.68L542.178 1097.09C538.731 1097.69 538.204 1095.25 537.69 1092.78L535.336 1092.18C530.475 1090.29 527.775 1086.51 526.167 1081.76C522.168 1077.76 520.033 1072.62 517.77 1067.47C517.399 1067.08 517.136 1066.6 517.005 1066.07C516.874 1065.55 516.881 1065 517.024 1064.48C516.621 1059.51 516.759 1054.52 517.436 1049.59C517.631 1047.12 518.062 1044.67 518.722 1042.28C518.696 1039.92 518.336 1037.52 518.195 1035.14C519.047 1030.17 518.859 1025.07 517.642 1020.18C517.654 1017.81 517.32 1015.43 517.539 1013.05C517.568 1012 517.512 1010.95 517.371 1009.91C517.513 1009.74 517.614 1009.54 517.667 1009.32C517.211 1009.54 516.78 1009.81 516.381 1010.12C509.836 1001.97 507.881 991.782 503.522 982.678L496.706 971.477C496.128 970.667 495.562 969.844 494.996 969.034C490.984 963.723 486.354 958.746 485.647 951.648C482.978 947.493 481.653 942.617 481.853 937.682C481.069 936.178 480.529 934.648 481.622 933.04C480.079 929.337 475.707 926.739 477.237 921.839L470.331 914.947C469.634 914.37 469.068 913.651 468.672 912.838C467.759 911.089 465.985 910.369 464.467 909.314C460.519 906.061 455.144 904.633 452.431 899.824C451.919 898.616 451.313 897.451 450.618 896.339C449.242 895.31 447.866 894.281 446.477 893.266C446.063 893.429 445.631 893.546 445.191 893.613C441.899 893.124 440.15 890.848 438.864 888.096L429.862 876.638C429.073 875.977 428.525 875.072 428.306 874.066V874.002C421.697 869.192 420.693 862.57 425.734 857.696C425.588 857.206 425.493 856.701 425.451 856.191C425.484 855.391 425.727 854.612 426.156 853.935C426.585 853.258 427.185 852.706 427.895 852.334C429.772 851.459 429.991 849.736 430.132 847.961C430.536 847.201 431 846.474 431.521 845.788C431.624 845.518 431.688 845.235 431.766 844.952V830.678C431.063 830.482 430.463 830.021 430.094 829.392C429.977 828.29 429.852 827.153 429.732 826.067L429.657 825.38C428.415 824.236 427.43 822.843 426.765 821.292C426.1 819.74 425.771 818.066 425.799 816.378C425.542 815.71 425.271 815.028 425.014 814.347C422.922 811.243 420.843 808.135 418.777 805.023L411.73 795.224C408.13 792.539 405.249 789.005 403.346 784.937C401.597 781.953 399.844 778.979 398.086 776.012L395.643 774.855C393.213 773.607 392.132 771.396 391.361 768.965C390.985 768.863 390.602 768.786 390.216 768.734C386.976 766.869 385.51 763.911 384.79 760.439C384.404 758.279 384.237 756.093 384.031 753.907C381.973 749.895 382.218 745.432 381.973 741.047C382.183 741.036 382.394 741.036 382.604 741.047C381.999 740.528 381.239 740.225 380.443 740.185C376.778 735.929 378.72 729.936 375.827 725.461C375.791 723.709 375.478 721.973 374.901 720.318L369.037 710.66C368.286 710.644 367.543 710.505 366.838 710.249C366.015 708.152 365.205 706.043 364.382 703.934C359.032 698.894 355.02 693.055 353.515 685.725L351.432 672.377C348.954 665.879 346.49 659.38 344.038 652.882C343.392 652.539 342.726 652.234 342.045 651.969C341.291 651.53 340.683 650.879 340.297 650.097C339.911 649.315 339.763 648.437 339.871 647.571C338.585 638.441 338.328 629.401 342.443 620.772C343.901 616.965 345.358 613.155 346.815 609.34C349.284 601.907 348.513 594.474 346.815 587.041C346.507 586.36 346.211 585.665 345.915 584.971C336.464 567.701 326.176 550.777 323.925 530.601C320.929 525.02 320.659 518.847 320.068 512.752C319.772 510.013 319.489 507.274 319.193 504.547C314.409 496.382 310.732 487.676 302.476 481.747C298.464 478.88 296.612 473.324 296.792 467.82C293.924 461.789 294.207 455.681 296.406 449.547C296.625 444.841 298.039 440.777 302.591 438.488L310.937 429.551L313.908 424.728C314.235 424.161 314.354 423.496 314.242 422.851C316.814 420.163 318.486 416.46 322.048 414.891C322.325 414.503 322.621 414.13 322.935 413.772C323.812 413.14 324.9 412.873 325.97 413.026L326.202 412.949C326.303 412.654 326.384 412.354 326.446 412.049C326.789 412.143 327.152 412.142 327.494 412.044C327.837 411.947 328.146 411.757 328.388 411.496H333.107C337.634 410.981 342.16 411.007 346.635 410.326L353.065 407.548L355.457 404.822L359.932 402.417C359.263 397.903 363.263 395.138 364.202 391.281C362.195 386.793 365.745 384.594 368.059 381.893C368.415 381.784 368.763 381.651 369.101 381.494C369.038 381.069 369.007 380.639 369.011 380.208L373.589 371.091C374.412 367.349 375.248 363.62 376.071 359.878C378.823 347.918 385.535 337.54 389.458 326.057C389.501 319.361 389.548 312.662 389.599 305.957C390.191 304.479 390.769 303 391.361 301.508C386.911 300.608 386.757 297.097 386.603 293.587C383.638 288.201 379.89 283.286 375.479 279.004C369.757 275.249 371.416 268.369 368.844 263.302C368.111 263.218 367.393 263.037 366.709 262.762C364.472 263.238 363.301 261.605 361.9 260.409L349.22 261.026L344.076 263.032C342.924 264.119 341.532 264.919 340.012 265.366C338.493 265.813 336.889 265.895 335.332 265.604L333.377 267.842L327.873 271.854C323.038 271.725 318.357 276.059 313.419 273.011C312.779 273.347 312.107 273.619 311.413 273.821C308.507 274.014 305.665 274.092 305.421 270.054C305.331 268.343 306.141 266.35 303.569 265.771L302.283 264.383C301.821 262.875 301.548 261.315 301.473 259.74C300.507 256.143 300.471 252.36 301.37 248.745C301.37 247.061 301.627 245.363 301.768 243.666C302.172 242.612 302.708 241.614 303.363 240.695C304.035 240.739 304.7 240.529 305.225 240.108C305.751 239.687 306.101 239.085 306.205 238.419C305.819 236.683 307.118 236.336 308.263 235.847C319.733 234.291 331.255 235.526 342.752 235.127H344.681C344.83 234.903 344.968 234.671 345.092 234.433C350.287 233.404 353.747 229.7 357.502 226.434C357.483 225.314 357.703 224.203 358.147 223.174C358.59 222.146 359.247 221.223 360.074 220.467L362.35 213.819L364.472 204.174C364.24 202.888 363.996 201.602 363.764 200.316C363.931 198.696 364.112 197.063 364.292 195.443C363.763 194.494 363.431 193.449 363.314 192.369C362.446 190.599 362.099 188.619 362.311 186.66C362.45 185.481 362.313 184.285 361.908 183.169C361.504 182.053 360.845 181.046 359.984 180.23C360.048 179.741 360.151 179.265 360.151 178.777C360.22 178.493 360.271 178.205 360.305 177.915C357.167 173.8 354.171 169.621 353.451 164.245C353.258 162.676 353.065 161.12 352.859 159.564V159.089C352.796 157.315 352.952 155.539 353.322 153.803C353.412 153.508 353.464 153.225 353.541 152.929C353.744 148.092 353.14 143.255 351.753 138.616C351.147 137.832 350.462 137.113 349.709 136.469C348.844 135.909 348.126 135.15 347.616 134.254C347.105 133.359 346.818 132.355 346.777 131.325C346.802 130.276 346.998 129.238 347.356 128.251C347.742 127.43 348.212 126.65 348.757 125.924C348.23 122.066 347.085 118.208 348.474 114.273C348.371 111.418 348.269 108.551 348.179 105.696C349.014 102.532 347.857 98.8932 350.429 96.1027C350.905 91.859 350.249 87.3582 353.374 83.7704C354.926 78.3436 356.477 72.9255 358.029 67.5159C359.538 63.0922 361.038 58.6771 362.53 54.2706L364.69 47.3136L370.606 36.0872L373.255 33.8625C375.132 31.3935 377.228 29.2588 380.276 28.8215C380.474 28.5397 380.65 28.2431 380.803 27.9342C381.301 27.3392 381.928 26.8663 382.637 26.5519C383.346 26.2375 384.118 26.0901 384.893 26.121H385.188L386.873 24.7065L391.374 24.4107C396.016 25.2852 401.044 23.9735 405.288 26.9826L413.646 25.2595L420.719 22.276C423.51 23.4591 425.079 21.183 427.046 20.0513L427.818 20.6943L440.947 20.5014H458.951C459.362 20.3728 459.748 20.2057 460.159 20.0899C460.499 19.9594 460.847 19.852 461.201 19.7684V18.6368C466.473 18.6625 471.964 16.1806 476.761 20.3342C479.937 20.8743 483.911 18.1224 486.097 22.649C486.774 22.622 487.447 22.7681 488.052 23.0733H490.624C500.68 22.8419 510.736 22.6232 520.792 22.4175H520.882C520.976 22.1246 521.041 21.823 521.075 21.5173C521.937 19.1126 524.599 19.0354 526.219 17.5823C527.903 16.9779 530.54 15.0104 531.221 16.6178C534.307 23.8706 543.348 24.6551 546.653 31.4449C550.202 32.1264 551.835 34.2097 551.243 37.8747L555.423 40.7552C555.59 42.2083 555.757 43.6615 555.912 45.1146L556.387 45.3203C558.949 46.5073 561.069 48.4744 562.444 50.9399L564.54 51.9173C565.804 51.7471 567.091 51.893 568.285 52.3418C569.479 52.7906 570.543 53.5284 571.382 54.4892C574.352 55.7623 577.001 57.3697 577.811 60.8161C582.248 68.5318 592.857 72.2354 592.355 83.1531C593.26 84.4981 593.661 86.1194 593.487 87.7311C593.404 88.1957 593.279 88.6519 593.114 89.0942C595.082 91.8847 593.616 95.6526 594.773 98.6617L596.47 101.324C598.129 111.045 607.568 113.926 613.188 120.189C614.509 120.364 615.766 120.862 616.849 121.638C617.932 122.414 618.808 123.444 619.399 124.638C619.998 125.908 620.405 127.26 620.608 128.65C621.19 129.943 621.378 131.379 621.148 132.778C621.259 134.27 621.473 135.753 621.791 137.215C622.107 138.136 622.364 139.077 622.563 140.031C623.103 142.731 623.707 145.458 625.675 147.605C627.706 150.126 629.944 152.505 631.86 155.076C632.337 155.596 632.968 155.947 633.66 156.08C634.56 156.318 635.365 156.824 635.969 157.532C636.574 158.24 636.948 159.115 637.042 160.04C643.858 160.825 643.639 167.615 645.491 172.655L651.715 177.889C654.518 180.153 654.827 183.458 655.406 186.647C656.391 189.672 657.984 192.465 660.087 194.853C662.19 197.241 664.758 199.175 667.635 200.535C671.339 203.133 669.564 209.46 674.708 211.067L673.551 213.073L676.534 211.17L679.492 207.08L682.822 208.302C683.697 207.916 684.52 207.505 685.394 207.17C690.898 205.614 696.479 203.853 698.897 211.646C699.27 212.752 699.63 213.857 700.003 214.963C701.623 216.622 702.96 218.847 705.879 217.985C706.214 215.208 707.024 212.584 707.165 209.678C707.525 202.412 711.255 203.454 715.318 207.389C718.289 208.328 714.868 213.767 719.575 213.549C723.689 205.823 732.211 213.917 737.021 208.693L737.012 208.688C740.009 205.036 739.803 198.439 746.593 198.297C748.445 199.995 750.078 201.795 749.499 204.599L755.376 204.676C756.213 204.07 757.012 203.413 757.768 202.708L769.74 188.833C773.289 184.126 776.838 184.422 780.413 188.833C780.953 189.411 781.198 189.964 780.953 190.505C780.873 190.686 780.774 190.858 780.658 191.019C781.622 192.845 781.352 194.851 781.944 196.703C782.047 196.819 782.047 196.934 782.047 197.05C782.574 196.968 783.113 196.997 783.628 197.134C784.144 197.272 784.626 197.514 785.043 197.847C785.721 197.945 786.363 198.215 786.907 198.632L791.601 199.815L793.427 201.332C794.109 201.114 794.79 200.882 795.459 200.689C797.578 200.755 799.651 201.314 801.516 202.322C804.088 200.496 806.66 200.342 809.232 203.313C809.153 203.754 809.23 204.208 809.45 204.599C811.816 207.029 813.912 209.524 812.151 213.034C812.497 212.947 812.857 212.933 813.21 212.993C813.562 213.053 813.897 213.185 814.195 213.382C814.917 213.577 815.626 213.818 816.317 214.102C818.503 215.619 821.422 213.6 823.506 215.619C823.583 215.684 823.583 215.748 823.583 215.812L825.242 215.233L829.202 215.658C832.533 213.086 836.764 214.179 840.467 213.086C840.952 212.858 841.483 212.745 842.018 212.756C842.553 212.767 843.079 212.902 843.554 213.15C843.592 213.253 843.708 213.356 843.708 213.459L846.087 212.173C847.314 211.616 848.658 211.367 850.002 211.447C851.347 211.528 852.652 211.936 853.803 212.636C854.06 212.885 854.305 213.146 854.536 213.42C854.672 213.618 854.768 213.841 854.819 214.076L858.432 213.767C858.309 213.374 858.309 212.952 858.432 212.559C860.207 209.562 862.496 209.318 865.196 211.106C865.096 210.172 865.339 209.233 865.882 208.466C866.424 207.699 867.227 207.156 868.141 206.939L874.777 203.686C877.078 204.663 880.628 201.577 881.914 205.872C882.612 205.974 883.247 206.337 883.688 206.888C887.083 204.097 891.198 205.653 894.953 205.01L897.435 202.631C898.104 201.911 898.67 201.86 899.158 202.361V202.284C899.872 201.838 900.682 201.57 901.521 201.5C902.36 201.431 903.203 201.563 903.981 201.885L909.497 206.618C908.944 207.826 909.24 208.714 910.526 209.189C907.826 213.652 907.543 218.435 907.954 223.335C908.407 223.793 908.956 224.144 909.562 224.364C913.214 227.579 918.383 228.337 921.843 231.874C924.08 234.304 926.318 236.747 928.568 239.178C932.567 237.776 935.667 238.946 937.711 242.714C945.401 243.242 953.04 244.026 960.177 247.305L962.492 248.758C968.6 250.777 973.358 249.568 975.93 243.139L975.737 240.438C979.26 236.837 983.247 236.04 987.478 238.921C993.213 242.83 999.669 243.164 1006.23 243.267C1008.8 243.923 1011.47 244.335 1014.05 244.875C1015.59 244.908 1017.12 245.208 1018.56 245.762L1023.02 247.588L1027.63 252.333V251.369C1031.23 251.317 1033.68 253.246 1035.7 255.972L1037.18 258.544C1040.3 260.358 1042.97 262.364 1040.23 266.607C1040.27 266.954 1040.34 267.315 1040.34 267.675C1040.16 273.089 1033.66 275.48 1033.91 281.1C1033.72 282.42 1033.38 283.714 1032.9 284.958C1033.01 287.499 1032.65 290.039 1031.86 292.455L1029.58 294.667C1029.23 299.643 1031.32 303.167 1035.66 305.739C1040.01 308.311 1043.33 311.706 1042.98 317.312C1045.76 322.765 1048.57 328.204 1054.55 330.969L1059.08 332.358C1063.46 338.878 1060.21 345.964 1060.21 352.805C1060.42 353.933 1060.79 355.027 1061.29 356.058C1061.81 356.927 1062.21 357.867 1062.46 358.849C1062.44 359.752 1062.32 360.649 1062.09 361.524L1065.86 368.969C1067.63 370.953 1068.85 373.371 1069.38 375.978C1069.98 376.432 1070.52 376.954 1071 377.534C1072.39 379.611 1073.14 382.046 1073.16 384.542C1072.61 387.95 1076.44 389.017 1077.02 391.808C1078.51 394.464 1079.53 397.357 1080.04 400.359C1079.94 400.501 1079.87 400.617 1079.78 400.758C1081.87 401.71 1083.4 403.471 1085.26 404.757L1086.08 407.201L1088.37 408.808C1093.92 408.255 1094.49 413.605 1097.29 416.318L1100.1 420.459L1104.06 422.966L1104.49 427.146L1111.5 434.591C1112.38 434.929 1113.31 435.149 1114.26 435.247C1115.16 435.579 1115.96 436.158 1116.55 436.919C1119.12 437.141 1121.53 438.239 1123.39 440.031C1123.79 439.812 1124.23 439.656 1124.68 439.568C1126.27 439.209 1127.94 439.348 1129.46 439.967C1131.07 440.331 1132.74 440.375 1134.37 440.095C1137.52 438.346 1140.38 435.659 1144.36 436.508C1144.79 437.935 1145.21 439.362 1145.65 440.79C1146.65 441.091 1147.54 441.662 1148.24 442.44C1148.93 443.219 1149.4 444.174 1149.59 445.201C1152.4 446.602 1155.24 441.921 1158.05 445.201L1162.44 447.772H1164.84C1172.9 453.199 1170.49 462.6 1173.27 470.032L1174.24 476.526C1175.32 479.081 1175.86 481.837 1175.81 484.613C1175.76 487.389 1175.13 490.124 1173.95 492.639C1173.08 497.963 1170.3 501.294 1164.66 501.641C1159.24 508.289 1155.42 515.272 1159.81 524.042C1161.52 529.143 1163.24 534.24 1164.95 539.332C1165.57 539.542 1166.23 539.599 1166.88 539.5C1171.23 536.799 1175 537.288 1178.08 541.531L1180.47 542.226L1182.66 541.493C1182.47 539.538 1182.99 537.969 1185.04 537.275C1192.65 531.99 1200.05 533.224 1207.31 538.034C1207.45 538.518 1207.61 538.994 1207.8 539.461C1208.14 539.408 1208.49 539.425 1208.82 539.509C1209.15 539.593 1209.47 539.743 1209.74 539.95L1223.14 538.214L1227.58 539.5C1237.62 541.673 1238.14 547.511 1233.62 555.227C1233.13 555.668 1232.58 556.036 1231.99 556.32C1232.07 556.886 1232.14 557.452 1232.23 558.004L1234.6 559.908V564.421C1235.89 569.359 1236.45 574.297 1234.7 579.171C1234.92 579.403 1235.15 579.621 1235.37 579.866C1235.97 580.883 1236.34 582.02 1236.45 583.196C1236.38 585.766 1235.79 588.295 1234.73 590.637C1233.67 592.979 1232.16 595.087 1230.28 596.84C1229.86 597.005 1229.43 597.126 1228.99 597.2C1227.81 600.184 1231.69 603.013 1230.83 605.983L1231.01 606.266C1231.25 606.78 1231.45 607.313 1231.59 607.861C1239.42 608.825 1244.09 613.956 1247.46 620.785L1248.11 623.177L1252.62 627.034C1258.15 631.188 1255.08 637.155 1255.78 642.299C1255.75 642.517 1255.66 642.697 1255.66 642.903C1256.43 642.723 1256.76 643.237 1256.76 644.459C1256.69 651.931 1266.03 649.294 1267.85 654.747L1270.67 658.952C1271.72 660.129 1272.44 661.561 1272.77 663.105C1272.99 664.633 1272.93 666.187 1272.61 667.696C1272.54 670.873 1267.19 672.802 1270.52 676.775C1270.9 677.311 1271.21 677.894 1271.44 678.511C1271.7 678.439 1271.98 678.435 1272.24 678.501C1272.5 678.566 1272.74 678.698 1272.93 678.884L1275.04 681.25C1276.55 683.496 1277.31 686.16 1277.22 688.863C1277.69 691.552 1277.52 694.315 1276.73 696.926L1275.98 698.302C1277.79 700.835 1276.92 704.256 1278.21 706.956C1278.95 712.1 1277.16 717.36 1279.35 722.388C1281.57 726.023 1283.79 729.666 1286 733.319C1288.96 741.857 1282.82 749.727 1284.2 758.15C1289.23 760.504 1295.32 763.757 1294.49 769.222C1293.43 776.205 1285.73 778.224 1279.75 780.796C1279.56 785.503 1284.83 788.319 1284.17 793.218C1289.11 793.668 1288.8 796.999 1288.16 800.497L1285.73 802.014C1285.6 802.477 1285.47 802.953 1285.37 803.416C1285.11 804.311 1284.66 805.139 1284.05 805.843C1283.44 806.547 1282.68 807.11 1281.83 807.492C1277.34 813.472 1283.35 824.583 1272.2 827.348C1272.46 833.572 1279.27 840.709 1269.5 845.351L1261.64 848.437C1259.19 853.221 1254.76 856.963 1253.71 862.583C1249.9 868.729 1249.92 875.905 1248.29 882.631C1248.08 883.6 1247.76 884.541 1247.33 885.434C1245.59 888.353 1242.16 889.806 1240.8 893.073C1240.33 893.986 1239.82 894.822 1239.28 895.645C1236.7 902.023 1235.87 908.324 1240.09 914.407C1240.96 915.402 1241.63 916.554 1242.06 917.801L1243.04 917.506C1244.23 912.002 1250.19 913.391 1253.97 911.642C1254.57 911.722 1255.16 911.882 1255.73 912.118C1257.32 910.742 1259.5 910.767 1261.51 910.42C1263.16 911.012 1265.12 911.153 1265.63 913.339C1265.85 914.625 1266.08 915.911 1266.3 917.197L1265.99 924.193C1267.76 925.376 1268.05 928.102 1270.17 928.938L1271 928.732C1273.33 932.603 1272.83 936.294 1270.37 939.894L1264.67 944.897C1264.92 947.803 1265.17 950.709 1265.41 953.615C1267.74 959.389 1264.55 966.051 1268.28 971.619C1276.59 973.805 1270.22 978.949 1270.63 982.807C1281.36 991.011 1275.99 1001.85 1275.42 1011.92L1272.72 1013.49C1269.71 1018.31 1264.56 1016.61 1260.07 1016.92C1260.07 1017.51 1259.95 1018.08 1259.71 1018.61C1259.47 1019.15 1259.12 1019.62 1258.69 1020.01C1258.12 1020.94 1257.58 1021.91 1257.01 1022.84L1256.55 1027.58L1250.47 1027.18L1246.07 1030.17C1245.88 1033.97 1244.59 1038.28 1250.3 1039.38L1262.12 1043.23C1265.18 1045.6 1268.43 1042.55 1271.54 1043.54C1274.07 1043.66 1276.66 1043.31 1278.99 1044.6C1278.35 1043.22 1278.23 1041.99 1280.59 1041.5L1284.44 1039.27C1284.72 1038.9 1285.11 1038.61 1285.55 1038.45C1285.99 1038.29 1286.47 1038.26 1286.92 1038.36C1291 1039.67 1294.33 1042.33 1298.19 1044.19C1298.76 1048.03 1299.94 1051.95 1296.62 1055.19C1296.3 1055.4 1295.94 1055.54 1295.57 1055.62C1295.79 1057.7 1294.85 1060.16 1297.51 1061.44C1298.38 1063.37 1300.16 1063.59 1301.94 1063.77C1303.1 1065.6 1305.51 1067.09 1304.22 1069.53C1304.43 1069.76 1304.63 1070.01 1304.81 1070.25C1305.92 1073.22 1304.76 1075.41 1302.43 1077.2L1295.26 1086.2C1288.83 1087.26 1282.4 1088.51 1275.97 1089C1272.78 1095.48 1265.85 1092.61 1261.03 1095.01C1256.69 1098.95 1261.86 1102.48 1261.54 1106.26C1262.92 1108.03 1262.45 1110.12 1262.45 1112.11C1262.21 1116.44 1256.19 1119.01 1258.66 1124.16L1261.48 1126.4C1263.98 1126.16 1266.5 1126.55 1268.81 1127.54C1271.12 1128.54 1273.14 1130.09 1274.7 1132.07C1279.27 1133.75 1282.6 1137.1 1285.91 1140.46C1294.02 1153.26 1292.29 1157.18 1277.65 1159.15C1273.97 1159.64 1270.35 1160.54 1266.86 1161.84C1264.75 1162.2 1262.74 1163.01 1260.96 1164.22C1259.81 1165.96 1258.82 1167.81 1258 1169.73C1257.9 1171.03 1258 1172.33 1258.3 1173.59C1258.31 1174.6 1258.12 1175.61 1257.75 1176.55C1256.33 1180.84 1256.6 1185.51 1258.49 1189.61C1258.83 1191.16 1258.87 1192.75 1258.62 1194.31C1256.85 1199.05 1259.66 1203.93 1258.24 1208.68C1258.11 1208.9 1258.02 1209.13 1257.9 1209.35C1258.22 1211.02 1257.63 1213.07 1259.51 1214.1C1261.63 1214.96 1261.82 1216.67 1261.51 1218.61C1261.76 1218.78 1261.95 1219.02 1262.06 1219.3C1262.16 1219.59 1262.17 1219.89 1262.08 1220.18C1261.91 1220.62 1261.75 1220.89 1261.58 1220.89C1261.77 1220.93 1261.95 1220.98 1262.13 1221.04C1265.09 1225.68 1264.05 1231.16 1265.33 1236.14C1265.49 1245.1 1263.57 1254.26 1267.75 1262.86C1268.91 1266.93 1268.61 1271.48 1271.85 1274.85C1273.81 1282.24 1277.96 1288.84 1279.43 1296.39C1279.75 1298.17 1280.16 1299.94 1280.61 1301.7C1281.18 1303.02 1281.56 1304.4 1281.76 1305.83C1281.88 1306.25 1282 1306.69 1282.12 1307.11C1284.57 1317.42 1284.65 1328.42 1290.71 1337.73Z" fill="#1F2937"/>
<path d="M386.603 293.587C383.638 288.201 379.89 283.287 375.479 279.004C369.757 275.249 371.416 268.369 368.844 263.302C368.111 263.218 367.393 263.037 366.709 262.762C364.472 263.238 363.301 261.605 361.9 260.409L349.22 261.026L344.076 263.032C342.924 264.119 341.532 264.919 340.012 265.366C338.493 265.813 336.889 265.895 335.332 265.604L333.377 267.842L327.873 271.854C323.038 271.725 318.357 276.059 313.419 273.011C312.779 273.347 312.107 273.619 311.413 273.821C308.507 274.014 305.665 274.092 305.421 270.054C305.331 268.343 306.141 266.35 303.569 265.771L302.283 264.383C301.821 262.875 301.548 261.315 301.473 259.74C300.507 256.143 300.471 252.36 301.37 248.745C301.37 247.061 301.627 245.363 301.768 243.666C302.172 242.612 302.708 241.614 303.363 240.695C304.035 240.739 304.7 240.529 305.225 240.108C305.751 239.687 306.101 239.085 306.205 238.419C305.819 236.683 307.118 236.336 308.263 235.847C319.733 234.291 331.255 235.526 342.752 235.127C343.395 235.127 344.038 235.127 344.681 235.127C344.83 234.903 344.968 234.671 345.092 234.433C350.287 233.404 353.747 229.7 357.502 226.434C357.483 225.314 357.703 224.203 358.147 223.174C358.59 222.146 359.247 221.223 360.074 220.467L362.35 213.819L364.472 204.174C364.24 202.888 363.996 201.602 363.764 200.316C363.931 198.696 364.112 197.063 364.292 195.443C363.763 194.494 363.431 193.449 363.314 192.369C362.446 190.599 362.099 188.619 362.311 186.66C362.45 185.481 362.313 184.285 361.908 183.169C361.504 182.053 360.845 181.046 359.984 180.23C360.048 179.741 360.151 179.265 360.151 178.777C360.22 178.493 360.271 178.205 360.305 177.915C357.167 173.8 354.171 169.621 353.451 164.245C353.258 162.676 353.065 161.12 352.859 159.564C352.859 159.41 352.859 159.256 352.859 159.089C352.796 157.315 352.952 155.539 353.322 153.803C353.412 153.508 353.464 153.225 353.541 152.929C353.744 148.092 353.14 143.255 351.753 138.616C351.147 137.832 350.462 137.113 349.709 136.469C348.844 135.909 348.126 135.15 347.616 134.254C347.105 133.359 346.818 132.355 346.777 131.325C346.802 130.276 346.998 129.238 347.356 128.251C347.742 127.43 348.212 126.65 348.757 125.924C348.23 122.066 347.085 118.208 348.474 114.273C348.371 111.418 348.269 108.551 348.179 105.696C349.014 102.532 347.857 98.8932 350.429 96.1027C350.905 91.859 350.249 87.3582 353.374 83.7704C354.926 78.3436 356.477 72.9255 358.029 67.5159C359.538 63.0922 361.038 58.6771 362.53 54.2706L364.69 47.3136L370.606 36.0872L373.255 33.8625C375.132 31.3935 377.228 29.2588 380.276 28.8215C380.474 28.5397 380.65 28.2431 380.803 27.9342C381.301 27.3392 381.928 26.8663 382.637 26.5519C383.346 26.2375 384.118 26.0901 384.893 26.121H385.188L386.873 24.7065L391.374 24.4107C396.016 25.2852 401.044 23.9735 405.288 26.9826L413.646 25.2595L420.719 22.276C423.51 23.4591 425.079 21.183 427.046 20.0513L427.818 20.6943L440.947 20.5014H458.951C459.362 20.3728 459.748 20.2057 460.159 20.0899C460.499 19.9594 460.847 19.852 461.201 19.7684C461.201 19.3955 461.201 19.0226 461.201 18.6368C466.473 18.6625 471.964 16.1806 476.761 20.3342C479.937 20.8743 483.911 18.1224 486.097 22.649C486.774 22.622 487.447 22.7681 488.052 23.0733H490.624C500.68 22.8419 510.736 22.6232 520.792 22.4175H520.882C520.976 22.1246 521.041 21.823 521.075 21.5173C521.937 19.1126 524.599 19.0354 526.219 17.5823C527.903 16.9779 530.54 15.0104 531.221 16.6178C534.307 23.8706 543.348 24.6551 546.653 31.4449C550.202 32.1264 551.835 34.2097 551.243 37.8747L555.423 40.7552C555.59 42.2083 555.757 43.6615 555.912 45.1146L556.387 45.3203C558.949 46.5073 561.069 48.4744 562.444 50.94L564.54 51.9173C565.804 51.7471 567.091 51.893 568.285 52.3418C569.479 52.7906 570.543 53.5284 571.382 54.4892C574.352 55.7623 577.001 57.3697 577.811 60.8161C582.248 68.5318 592.857 72.2354 592.355 83.1531C593.26 84.4981 593.661 86.1194 593.487 87.7311C593.404 88.1957 593.279 88.6519 593.114 89.0942C595.082 91.8847 593.616 95.6526 594.773 98.6617L596.47 101.324C598.129 111.045 607.568 113.926 613.188 120.189C614.509 120.364 615.766 120.862 616.849 121.638C617.932 122.414 618.808 123.444 619.399 124.638C619.998 125.908 620.405 127.26 620.608 128.65C621.19 129.943 621.378 131.379 621.148 132.778C621.259 134.27 621.473 135.753 621.791 137.215C622.107 138.136 622.364 139.077 622.563 140.031C623.103 142.731 623.707 145.458 625.675 147.605C627.706 150.126 629.944 152.505 631.86 155.076C632.337 155.596 632.968 155.947 633.66 156.08C634.56 156.318 635.365 156.824 635.969 157.532C636.574 158.24 636.948 159.115 637.042 160.04C643.858 160.825 643.639 167.615 645.491 172.655L651.715 177.889C654.518 180.153 654.827 183.458 655.406 186.647C656.391 189.672 657.984 192.465 660.087 194.853C662.19 197.241 664.758 199.175 667.635 200.535C671.339 203.133 669.564 209.46 674.708 211.067L673.551 213.073L676.534 211.17L679.492 207.08L682.822 208.302C683.697 207.916 684.52 207.505 685.394 207.17C690.898 205.614 696.479 203.853 698.897 211.646C699.27 212.752 699.63 213.857 700.003 214.963C701.623 216.622 702.96 218.847 705.879 217.985C706.214 215.208 707.024 212.584 707.165 209.678C707.525 202.412 711.255 203.454 715.318 207.389C718.289 208.328 714.868 213.767 719.575 213.549C723.69 205.82 732.216 213.922 737.025 208.688C737.312 208.824 737.58 208.997 737.823 209.202V209.125L737.012 208.688C740.009 205.036 739.803 198.439 746.593 198.297C748.445 199.995 750.078 201.795 749.499 204.599L755.376 204.676C756.213 204.07 757.012 203.413 757.768 202.708L769.74 188.833C773.289 184.126 776.838 184.422 780.413 188.833C780.953 189.411 781.198 189.964 780.953 190.505C780.873 190.686 780.774 190.858 780.658 191.019C781.622 192.845 781.352 194.851 781.944 196.703C782.047 196.819 782.047 196.934 782.047 197.05C782.574 196.968 783.113 196.997 783.628 197.134C784.144 197.272 784.626 197.514 785.043 197.847C785.721 197.945 786.363 198.215 786.907 198.632L791.601 199.815L793.427 201.332C794.109 201.114 794.79 200.882 795.459 200.689C797.578 200.755 799.651 201.314 801.516 202.322C804.088 200.496 806.66 200.342 809.232 203.313C809.153 203.754 809.23 204.208 809.45 204.599C811.816 207.029 813.912 209.524 812.151 213.034C812.497 212.947 812.858 212.933 813.21 212.993C813.562 213.053 813.897 213.185 814.195 213.382C814.917 213.577 815.626 213.818 816.317 214.102C818.503 215.619 821.422 213.6 823.506 215.619C823.583 215.684 823.583 215.748 823.583 215.812L825.242 215.233L829.202 215.658C832.533 213.086 836.764 214.179 840.467 213.086C840.952 212.858 841.483 212.745 842.018 212.756C842.553 212.767 843.079 212.902 843.554 213.15C843.592 213.253 843.708 213.356 843.708 213.459L846.087 212.173C847.314 211.616 848.658 211.367 850.002 211.447C851.347 211.528 852.652 211.936 853.803 212.636C854.06 212.885 854.305 213.146 854.536 213.42C854.672 213.618 854.768 213.841 854.819 214.076L858.432 213.767C858.309 213.374 858.309 212.952 858.432 212.559C860.207 209.562 862.496 209.318 865.196 211.106C865.096 210.172 865.339 209.233 865.882 208.466C866.424 207.699 867.227 207.156 868.141 206.939L874.777 203.686C877.078 204.663 880.628 201.577 881.914 205.872C882.612 205.974 883.247 206.337 883.688 206.888C887.083 204.097 891.198 205.653 894.953 205.01L897.435 202.631C898.104 201.911 898.67 201.86 899.158 202.361V202.284C899.872 201.838 900.682 201.57 901.521 201.5C902.36 201.431 903.203 201.563 903.981 201.885L909.497 206.618C908.944 207.826 909.24 208.714 910.526 209.189C907.826 213.652 907.543 218.435 907.954 223.335C908.407 223.793 908.956 224.144 909.562 224.364C913.214 227.579 918.383 228.337 921.843 231.874C924.08 234.304 926.318 236.747 928.568 239.178C932.567 237.776 935.667 238.946 937.711 242.714C945.401 243.242 953.04 244.026 960.177 247.305L962.492 248.758C968.6 250.777 973.358 249.568 975.93 243.139L975.737 240.438C979.26 236.837 983.247 236.04 987.478 238.921C993.213 242.83 999.669 243.164 1006.23 243.267C1008.8 243.923 1011.47 244.335 1014.05 244.875C1015.59 244.908 1017.12 245.208 1018.56 245.762L1023.02 247.588L1027.63 252.333V251.369C1031.23 251.317 1033.68 253.246 1035.7 255.972L1037.18 258.544C1040.3 260.358 1042.97 262.364 1040.23 266.607C1040.27 266.954 1040.34 267.315 1040.34 267.675C1040.16 273.088 1033.66 275.48 1033.91 281.1C1033.72 282.42 1033.38 283.714 1032.9 284.958C1033.01 287.499 1032.65 290.039 1031.86 292.455L1029.58 294.667C1029.23 299.643 1031.32 303.167 1035.66 305.739C1040.01 308.311 1043.33 311.706 1042.98 317.312C1045.76 322.765 1048.57 328.204 1054.55 330.969L1059.08 332.358C1063.46 338.878 1060.21 345.964 1060.21 352.805C1060.42 353.933 1060.79 355.027 1061.29 356.058C1061.81 356.927 1062.21 357.867 1062.46 358.849C1062.44 359.752 1062.32 360.649 1062.09 361.524L1065.86 368.969C1067.63 370.953 1068.85 373.371 1069.38 375.978C1069.98 376.432 1070.52 376.954 1071 377.534C1072.39 379.611 1073.14 382.046 1073.16 384.542C1072.61 387.95 1076.44 389.017 1077.02 391.808C1078.51 394.464 1079.53 397.357 1080.04 400.359C1079.94 400.501 1079.87 400.617 1079.78 400.758C1081.87 401.71 1083.4 403.471 1085.26 404.757L1086.08 407.201L1088.37 408.808C1093.92 408.255 1094.49 413.605 1097.29 416.318L1100.1 420.459L1104.06 422.966L1104.49 427.146L1111.5 434.591C1112.38 434.929 1113.31 435.149 1114.26 435.247C1115.16 435.579 1115.96 436.158 1116.55 436.919C1119.12 437.141 1121.53 438.239 1123.39 440.031C1123.79 439.812 1124.23 439.656 1124.68 439.568C1126.27 439.209 1127.94 439.348 1129.46 439.967C1131.07 440.331 1132.74 440.375 1134.37 440.095C1137.52 438.346 1140.38 435.659 1144.36 436.508C1144.79 437.935 1145.21 439.362 1145.65 440.79C1146.65 441.091 1147.54 441.662 1148.24 442.44C1148.93 443.219 1149.4 444.174 1149.59 445.201C1152.4 446.602 1155.24 441.921 1158.05 445.201L1162.44 447.772H1164.84C1172.9 453.199 1170.49 462.6 1173.27 470.032L1174.24 476.526C1175.32 479.081 1175.86 481.837 1175.81 484.613C1175.76 487.389 1175.13 490.124 1173.95 492.639C1173.08 497.963 1170.3 501.294 1164.66 501.641C1159.24 508.289 1155.42 515.272 1159.81 524.042C1161.52 529.143 1163.24 534.24 1164.95 539.332C1165.57 539.542 1166.23 539.599 1166.88 539.5C1171.23 536.799 1175 537.288 1178.08 541.531L1180.47 542.226L1182.66 541.493C1182.47 539.538 1182.99 537.969 1185.04 537.275C1192.65 531.99 1200.05 533.224 1207.31 538.034C1207.45 538.518 1207.61 538.994 1207.8 539.461C1208.14 539.408 1208.49 539.425 1208.82 539.509C1209.15 539.593 1209.47 539.743 1209.74 539.95L1223.14 538.214L1227.58 539.5C1237.62 541.673 1238.14 547.511 1233.62 555.227C1233.13 555.668 1232.58 556.036 1231.99 556.32C1232.07 556.886 1232.14 557.452 1232.23 558.004L1234.6 559.908C1234.6 561.412 1234.6 562.917 1234.6 564.421C1235.89 569.359 1236.45 574.297 1234.7 579.171C1234.92 579.403 1235.15 579.621 1235.37 579.866C1235.97 580.882 1236.34 582.02 1236.45 583.196C1236.38 585.766 1235.79 588.295 1234.73 590.637C1233.67 592.979 1232.16 595.087 1230.28 596.84C1229.86 597.005 1229.43 597.126 1228.99 597.2C1227.81 600.184 1231.69 603.013 1230.83 605.983L1231.01 606.266C1231.25 606.78 1231.45 607.313 1231.59 607.861C1239.42 608.825 1244.09 613.956 1247.46 620.785L1248.11 623.177L1252.62 627.034C1258.15 631.188 1255.08 637.155 1255.78 642.299C1255.75 642.517 1255.66 642.697 1255.66 642.903C1256.43 642.723 1256.76 643.237 1256.76 644.459C1256.69 651.931 1266.03 649.294 1267.85 654.747L1270.67 658.952C1271.72 660.129 1272.44 661.561 1272.77 663.105C1272.99 664.633 1272.93 666.187 1272.61 667.696C1272.54 670.873 1267.19 672.802 1270.52 676.775C1270.9 677.311 1271.21 677.894 1271.44 678.511C1271.7 678.439 1271.98 678.435 1272.24 678.501C1272.5 678.566 1272.74 678.698 1272.93 678.884L1275.04 681.25C1276.55 683.496 1277.31 686.16 1277.22 688.863C1277.69 691.552 1277.52 694.315 1276.73 696.926L1275.98 698.302C1277.79 700.835 1276.92 704.256 1278.21 706.957C1278.95 712.1 1277.16 717.36 1279.35 722.388C1281.57 726.023 1283.79 729.666 1286 733.319C1288.96 741.857 1282.82 749.727 1284.2 758.15C1289.23 760.504 1295.32 763.757 1294.49 769.222C1293.43 776.205 1285.73 778.224 1279.75 780.796C1279.56 785.503 1284.83 788.319 1284.17 793.218C1289.11 793.668 1288.8 796.999 1288.16 800.497L1285.73 802.014C1285.6 802.477 1285.47 802.953 1285.37 803.416C1285.11 804.311 1284.66 805.139 1284.05 805.843C1283.44 806.547 1282.68 807.11 1281.83 807.492C1277.34 813.472 1283.35 824.583 1272.2 827.348C1272.46 833.572 1279.27 840.709 1269.5 845.351L1261.64 848.437C1259.19 853.221 1254.76 856.963 1253.71 862.583C1249.9 868.729 1249.92 875.905 1248.29 882.631C1248.08 883.6 1247.76 884.54 1247.33 885.434C1245.59 888.353 1242.16 889.806 1240.8 893.073C1240.33 893.986 1239.82 894.822 1239.28 895.645C1236.7 902.023 1235.87 908.324 1240.09 914.407C1240.96 915.402 1241.63 916.554 1242.06 917.801L1243.04 917.506C1244.23 912.002 1250.19 913.391 1253.97 911.642C1254.57 911.722 1255.16 911.882 1255.73 912.118C1257.32 910.742 1259.5 910.767 1261.51 910.42C1263.16 911.012 1265.12 911.153 1265.63 913.339C1265.85 914.625 1266.08 915.911 1266.3 917.197L1265.99 924.193C1267.76 925.376 1268.05 928.102 1270.17 928.938L1271 928.732C1273.33 932.603 1272.83 936.294 1270.37 939.894L1264.67 944.897C1264.92 947.803 1265.17 950.709 1265.41 953.615C1267.74 959.389 1264.55 966.051 1268.28 971.619C1276.59 973.805 1270.22 978.949 1270.63 982.807C1281.36 991.011 1275.99 1001.85 1275.42 1011.92L1272.72 1013.49C1269.71 1018.31 1264.56 1016.61 1260.07 1016.92C1260.07 1017.51 1259.95 1018.08 1259.71 1018.61C1259.47 1019.15 1259.12 1019.62 1258.69 1020.01C1258.12 1020.94 1257.58 1021.91 1257.01 1022.84L1256.55 1027.58L1250.47 1027.18L1246.07 1030.17C1245.88 1033.97 1244.59 1038.28 1250.3 1039.38L1262.12 1043.23C1265.18 1045.6 1268.43 1042.55 1271.54 1043.54C1274.07 1043.66 1276.66 1043.31 1278.99 1044.6C1278.35 1043.22 1278.23 1041.99 1280.59 1041.5L1284.44 1039.27C1284.72 1038.9 1285.11 1038.61 1285.55 1038.45C1285.99 1038.29 1286.47 1038.26 1286.92 1038.36C1291 1039.67 1294.33 1042.33 1298.19 1044.19C1298.76 1048.03 1299.94 1051.95 1296.62 1055.19C1296.3 1055.4 1295.94 1055.54 1295.57 1055.62C1295.79 1057.7 1294.85 1060.16 1297.51 1061.44C1298.38 1063.37 1300.16 1063.59 1301.94 1063.77C1303.1 1065.6 1305.51 1067.09 1304.22 1069.53C1304.43 1069.76 1304.63 1070.01 1304.81 1070.25C1305.92 1073.22 1304.76 1075.41 1302.43 1077.2L1295.26 1086.2C1288.83 1087.26 1282.4 1088.51 1275.97 1089C1272.78 1095.48 1265.85 1092.61 1261.03 1095.01C1256.69 1098.95 1261.86 1102.48 1261.54 1106.26C1262.92 1108.03 1262.45 1110.12 1262.45 1112.11C1262.21 1116.44 1256.19 1119.01 1258.66 1124.16L1261.48 1126.4C1263.98 1126.16 1266.5 1126.55 1268.81 1127.54C1271.12 1128.54 1273.14 1130.09 1274.7 1132.07C1279.27 1133.75 1282.6 1137.1 1285.91 1140.46C1294.02 1153.26 1292.29 1157.18 1277.65 1159.15C1273.97 1159.64 1270.35 1160.54 1266.86 1161.84C1264.75 1162.2 1262.74 1163.01 1260.96 1164.22C1259.81 1165.96 1258.82 1167.81 1258 1169.73C1257.9 1171.03 1258 1172.33 1258.3 1173.59C1258.31 1174.6 1258.12 1175.61 1257.75 1176.55C1256.33 1180.84 1256.6 1185.51 1258.49 1189.61C1258.83 1191.16 1258.87 1192.75 1258.62 1194.31C1256.85 1199.05 1259.66 1203.93 1258.24 1208.68C1258.11 1208.9 1258.02 1209.13 1257.9 1209.35C1258.22 1211.02 1257.63 1213.07 1259.51 1214.1C1261.63 1214.96 1261.82 1216.67 1261.51 1218.61C1261.76 1218.78 1261.95 1219.02 1262.06 1219.3C1262.16 1219.59 1262.17 1219.89 1262.08 1220.18C1261.91 1220.62 1261.75 1220.89 1261.58 1220.89C1261.77 1220.93 1261.95 1220.98 1262.13 1221.04C1265.09 1225.68 1264.05 1231.16 1265.33 1236.14C1265.49 1245.1 1263.57 1254.26 1267.75 1262.86C1268.91 1266.93 1268.61 1271.48 1271.85 1274.85C1273.81 1282.24 1277.96 1288.84 1279.43 1296.39C1279.75 1298.17 1280.16 1299.94 1280.61 1301.7C1281.18 1303.02 1281.56 1304.4 1281.76 1305.83C1281.88 1306.25 1282 1306.69 1282.12 1307.11C1284.57 1317.42 1284.65 1328.42 1290.71 1337.73L1299.57 1349.3C1304.04 1350.22 1304.93 1353.59 1305.3 1357.43C1304.74 1363.95 1306.55 1370.87 1302.27 1376.81C1301.35 1384.33 1294 1388.78 1292.99 1396.27C1292.71 1397.31 1292.42 1398.36 1292.12 1399.4C1291.14 1408.74 1291.58 1418.06 1291.99 1427.41C1291.97 1430.91 1291.49 1434.23 1288.39 1436.5C1285.84 1438.93 1284.28 1442.21 1284.01 1445.72C1283.74 1446.64 1283.43 1447.54 1283.09 1448.44C1282.93 1451.41 1280.15 1454.74 1284.38 1457.09C1284.88 1457.77 1285.17 1458.59 1285.19 1459.43C1285.22 1460.27 1284.98 1461.1 1284.52 1461.81C1287.66 1463.82 1288.84 1466.27 1285.95 1469.67C1285.31 1469.89 1284.68 1470.14 1284.07 1470.43C1284.14 1471.16 1283.98 1471.9 1283.61 1472.54C1274.97 1474.08 1278.26 1478.59 1279.75 1482.66C1280.2 1483.25 1280.68 1483.82 1281.19 1484.35C1282.25 1485.48 1282.95 1486.89 1283.22 1488.42C1283.29 1492.82 1280.77 1495.83 1277.79 1498.56C1277.82 1498.63 1277.85 1498.7 1277.88 1498.77C1280.93 1500.35 1282.44 1503.39 1283.72 1506.65C1286.44 1513.3 1283.48 1520.07 1284.13 1526.75C1280.07 1530.3 1284.21 1533.75 1284.28 1537.25C1284.73 1537.34 1285.19 1537.39 1285.65 1537.4C1290.18 1540.79 1290.77 1544.24 1285.82 1547.78C1284.68 1547.95 1283.52 1547.95 1282.39 1547.78H1282.28C1279.4 1549.57 1276.2 1550.78 1272.86 1551.35C1272.5 1551.33 1272.17 1551.24 1271.84 1551.24C1267.17 1557.89 1259.12 1559.21 1252.55 1562.81L1250.48 1565.02C1250.1 1565.52 1249.64 1565.95 1249.12 1566.31C1249.3 1566.63 1249.42 1566.99 1249.46 1567.36C1249.51 1567.73 1249.48 1568.11 1249.37 1568.47C1249.27 1568.83 1249.1 1569.16 1248.86 1569.45C1248.63 1569.75 1248.34 1569.99 1248.01 1570.17C1248.11 1570.72 1248.2 1571.27 1248.31 1571.82C1248.42 1573.95 1248.55 1576.09 1248.67 1578.25C1248.32 1578.41 1247.99 1578.6 1247.68 1578.81C1247.78 1580.85 1247.87 1582.91 1247.97 1584.95C1248.14 1585.54 1248.24 1586.14 1248.26 1586.74C1248.59 1586.75 1248.93 1586.77 1249.26 1586.82C1251.5 1588.16 1252.19 1589.89 1250.67 1592.21C1250.46 1592.9 1250.24 1593.6 1250.01 1594.29C1249.56 1602.08 1245.34 1608.26 1241.48 1614.69C1239.1 1616.32 1240.63 1619.23 1239.34 1621.24C1239.33 1623.62 1239.28 1625.99 1239.2 1628.36L1239.32 1641.79C1239.18 1643.13 1239.04 1644.53 1238.88 1645.82C1239.17 1647.08 1239.15 1648.39 1238.83 1649.64C1238.51 1650.89 1237.9 1652.05 1237.04 1653.02L1236.31 1659.24C1234.39 1673.01 1232.47 1686.75 1230.55 1700.47C1230.33 1701.76 1230.12 1703.04 1229.91 1704.33C1226.95 1713.97 1217.46 1713.05 1210.54 1716.29C1204.21 1720.64 1197.89 1724.98 1193.56 1731.55C1191.76 1734.87 1188.54 1735.84 1185.19 1736.61L1184.22 1736.14H1183.14C1179.66 1742.61 1173.48 1740.14 1168.21 1740.66C1161.02 1742.96 1153.3 1742.96 1146.11 1740.66C1132.42 1741.11 1119.47 1745.02 1106.7 1749.66L1106.62 1749.51C1103.66 1752.69 1100.58 1755.7 1097.23 1749.74L1093.38 1741.91H1091.02L1088.37 1738.36C1086.01 1737.82 1083.4 1738 1081.69 1735.78C1078.61 1735.53 1075.39 1735.84 1072.92 1733.37L1048.15 1733.03L1045.74 1733.11C1041.09 1737.29 1035.38 1734.87 1030.16 1735.6C1029.89 1735.82 1029.58 1735.98 1029.24 1736.07C1028.91 1736.15 1028.56 1736.16 1028.22 1736.09L1017.26 1740.49H1017.16C1017.3 1740.59 1017.43 1740.69 1017.56 1740.8C1017.65 1749.42 1013.83 1757.04 1010.84 1764.85C1006.34 1773.59 1004.02 1783.18 1000.43 1792.26C999.579 1792.57 998.936 1791.83 998.434 1791.52C998.5 1791.86 998.655 1792.18 998.884 1792.44C998.794 1793.6 998.794 1794.77 998.884 1795.93C999.121 1797.72 999.121 1799.54 998.884 1801.33C998.742 1802.71 998.229 1804.03 997.398 1805.15C996.567 1806.27 995.45 1807.14 994.165 1807.67L990.242 1810.24C989.978 1810.85 989.763 1811.48 989.599 1812.13C988.931 1814.32 987.658 1815.51 985.214 1814.79L982.758 1816.27L981.729 1816.4H981.408C981.238 1816.78 981.027 1817.14 980.778 1817.48C975.505 1821.65 968.934 1822.07 962.775 1823.74C952.808 1824.81 946.88 1833.71 937.878 1836.6C928.864 1842.96 927.076 1851.74 929.378 1861.88L929.147 1863.4C929.047 1864 928.987 1864.61 928.967 1865.22C929.661 1868.19 930.69 1871.19 928.272 1873.77C928.049 1874.34 927.764 1874.9 927.424 1875.41C927.023 1875.74 926.535 1875.93 926.021 1875.98C925.507 1876.02 924.992 1875.91 924.543 1875.66C921.058 1874.02 918.679 1878.04 915.4 1877.48L915.258 1877.38V1877.51H915.361C913.985 1880.58 910.822 1878.9 908.7 1879.99C902.348 1881.83 895.841 1880.39 889.411 1880.84H889.089C889.037 1881.09 888.911 1881.32 888.728 1881.5C888.545 1881.68 888.312 1881.8 888.061 1881.84C886.521 1881.58 884.943 1881.68 883.447 1882.13C881.952 1882.57 880.578 1883.35 879.432 1884.41L878.917 1883.81L877.451 1884.4C877.259 1884.85 877.079 1885.3 876.886 1885.76H876.963C878.403 1890.12 875.291 1889.79 872.719 1889.79L871.613 1889.69L870.52 1889.87L861.814 1888.81C861.35 1889.09 860.859 1889.33 860.348 1889.51C855.742 1891.63 850.829 1893.01 845.791 1893.6L845.881 1892.68L843.451 1893.11L829.923 1895.19H816.613L809.592 1895.89L807.148 1893.98C807.264 1893.09 807.393 1892.25 807.508 1891.41C801.863 1895.22 796.205 1894.15 790.534 1891.23C788.348 1890.99 785.776 1891.64 784.593 1888.86L773.829 1879.28L761.857 1875.55C749.152 1873.5 748.149 1872.42 751.261 1864.16C753.82 1862.76 756.019 1863.35 758.192 1865.16C765.02 1870.85 771.335 1869.54 777.211 1863.54L780.838 1856.01C781.596 1851.57 784.888 1848.14 786.174 1843.86C791.614 1828.48 797.465 1813.19 798.044 1796.57C797.557 1794.12 796.548 1791.79 795.083 1789.76C793.618 1787.73 791.733 1786.04 789.556 1784.8C783.659 1782.08 778.372 1778.2 774.009 1773.39C773.456 1773.49 772.903 1773.63 772.35 1773.63L769.496 1769.77C769.432 1769.84 769.372 1769.91 769.316 1769.98C765.162 1770.3 764.056 1767.11 762.77 1764.22C761.523 1760.56 757.729 1758.06 758.102 1753.7C757.879 1753.53 757.716 1753.29 757.64 1753.02C757.563 1752.75 757.576 1752.47 757.678 1752.21C751.441 1750.6 752.868 1744.5 750.811 1740.45C748.676 1739.35 749.152 1737.35 749.345 1735.49C749.705 1729.8 749.023 1724.43 744.895 1720.06C743.224 1713.05 742.786 1705.6 737.861 1699.71C733.682 1692.99 729.875 1686.11 728.062 1678.31C728.384 1676.54 728.062 1674.55 728.911 1672.99L728.679 1670.93C728.731 1670.75 728.821 1670.57 728.821 1670.38C727.972 1670.38 726.75 1670.77 726.249 1670.38C725.323 1665.78 724.269 1661.17 726.995 1656.77C727.548 1656.76 728.102 1656.81 728.641 1656.94L728.564 1656.56L728.795 1654.95C728.112 1653.39 727.736 1651.72 727.689 1650.02C727.998 1645.06 730.325 1640.98 733.54 1637.34C735.101 1634.15 736.661 1630.97 738.221 1627.78C739.67 1621.83 741.119 1615.87 742.568 1609.91C742.653 1603.14 742.696 1596.37 742.696 1589.61L740.497 1578.4C739.571 1573.94 738.654 1569.47 737.745 1565L729.49 1548.9C726.352 1546.05 724.95 1541.54 720.642 1539.89C718.237 1539.25 716.231 1538.17 715.666 1535.48L713.351 1532.91L704.169 1526.74C703.558 1526.97 702.925 1527.13 702.279 1527.21C694.422 1525.35 689.818 1519.87 686.384 1513.07C686.13 1512.37 685.919 1511.65 685.754 1510.92C682.059 1505.57 678.36 1500.23 674.656 1494.89C674.74 1494.25 674.74 1493.61 674.656 1492.97C672.367 1491.2 672.753 1488.48 672.367 1486.05C672.908 1481.72 671.686 1477.09 674.194 1473.06C673.988 1471.51 673.666 1469.95 673.692 1468.37C673.718 1466.79 673.795 1465.22 673.795 1463.64C674.374 1460.74 675.84 1458.73 679.003 1458.4C679.56 1458.54 680.1 1458.74 680.61 1459C679.955 1455.97 681.112 1452.98 681.408 1449.99C681.233 1449.66 681.164 1449.28 681.21 1448.91C681.256 1448.54 681.415 1448.19 681.665 1447.91C682.398 1441 680.765 1434.36 679.479 1427.66C679.234 1427.49 679.046 1427.25 678.943 1426.97C678.839 1426.69 678.824 1426.39 678.9 1426.1C678.197 1425.96 677.508 1425.75 676.843 1425.48C675.698 1422.26 673.1 1420.52 670.259 1419.05C669.976 1418.28 669.68 1417.52 669.397 1416.76C668.947 1415.98 668.497 1415.2 668.034 1414.41C667.635 1414.75 667.204 1415.05 666.748 1415.3C657.348 1412.97 655.007 1404.72 652.744 1397.22C650.93 1391.27 649.525 1385.21 648.539 1379.07C648.719 1377.94 648.809 1376.81 648.937 1375.68C647.554 1370.76 647.937 1365.52 650.018 1360.85C650.146 1359.18 650.275 1357.52 650.468 1355.86C650.733 1354.21 651.409 1352.65 652.435 1351.32C656.512 1345.81 658.505 1339.34 660.871 1333.04C661.064 1332.64 661.27 1332.2 661.463 1331.75C661.797 1331.02 662.08 1330.41 662.35 1329.73L663.469 1323.3C663.394 1321.98 663.112 1320.68 662.633 1319.44C662.491 1317.96 662.491 1316.5 662.491 1315.02C663.43 1308.95 663.109 1303.15 659.045 1298.1C657.733 1293.45 656.229 1288.86 655.329 1284.13C656.113 1280.11 655.83 1275.94 656.615 1271.91L656.422 1268.88C656.447 1268.76 656.512 1268.65 656.512 1268.52C656.351 1268.58 656.182 1268.62 656.01 1268.64C651.586 1265.02 653.464 1259.78 652.512 1255.29C652.602 1254.14 652.731 1253.01 652.731 1251.88H652.59L650.738 1244.16C650.121 1243.36 649.378 1242.65 648.539 1242.08C646.636 1239.8 644.938 1237.46 644.938 1234.36H646.005L641.003 1227.83L636.502 1223.34C634.509 1222.33 632.722 1221.2 632.49 1218.62L629.777 1214.36C626.292 1214.41 624.016 1212.85 623.141 1209.39C622.482 1208.56 622.097 1207.55 622.037 1206.49C621.977 1205.43 622.246 1204.38 622.807 1203.48L622.653 1203.4C620.981 1199.86 616.994 1200.07 614.255 1198.26L611.683 1196.67C610.933 1195.97 610.382 1195.09 610.089 1194.1C610.089 1193.75 610.089 1193.42 610.089 1193.09C606.077 1189.01 606.089 1183.4 605.356 1178.08C604.598 1174.34 603.826 1170.59 603.067 1166.87L601.023 1163.15C600.631 1163.04 600.251 1162.9 599.891 1162.71L593.821 1155.39L587.07 1151.74C582.762 1150.61 579.342 1148.78 579.792 1144.18C578.125 1143.07 576.886 1141.43 576.281 1139.53L576.41 1139.71C574.003 1136.59 572.901 1132.65 573.336 1128.74C572.642 1126.49 571.934 1124.24 571.24 1121.97C571.028 1121.78 570.887 1121.52 570.838 1121.24C570.789 1120.96 570.836 1120.67 570.97 1120.42C567.627 1120.55 565.891 1118.4 564.425 1115.83L557.918 1110.68C554.124 1107.88 549.61 1105.91 546.948 1101.68L542.178 1097.09C538.731 1097.69 538.204 1095.25 537.69 1092.78L535.336 1092.18C530.475 1090.29 527.775 1086.51 526.167 1081.76C522.168 1077.76 520.033 1072.62 517.77 1067.47C517.399 1067.08 517.136 1066.6 517.005 1066.07C516.874 1065.55 516.881 1065 517.024 1064.48C516.621 1059.51 516.759 1054.52 517.436 1049.59C517.631 1047.12 518.062 1044.67 518.722 1042.28C518.696 1039.92 518.336 1037.52 518.195 1035.14C519.047 1030.17 518.859 1025.07 517.642 1020.18C517.654 1017.81 517.32 1015.43 517.539 1013.05C517.568 1012 517.512 1010.95 517.371 1009.91C517.513 1009.74 517.614 1009.54 517.667 1009.32C517.211 1009.54 516.78 1009.81 516.381 1010.12C509.836 1001.97 507.881 991.782 503.522 982.678L496.706 971.477C496.128 970.667 495.562 969.844 494.996 969.034C490.984 963.723 486.354 958.746 485.647 951.648C482.978 947.493 481.653 942.617 481.853 937.682C481.069 936.178 480.529 934.648 481.622 933.04C480.079 929.337 475.707 926.739 477.237 921.839L470.331 914.947C469.634 914.37 469.068 913.651 468.672 912.838C467.759 911.089 465.985 910.369 464.467 909.314C460.519 906.061 455.144 904.633 452.431 899.824C451.919 898.616 451.313 897.451 450.618 896.339C449.242 895.31 447.866 894.281 446.477 893.266C446.063 893.429 445.631 893.546 445.191 893.613C441.899 893.124 440.15 890.848 438.864 888.096L429.862 876.638C429.073 875.977 428.525 875.072 428.306 874.066V874.002C421.697 869.192 420.693 862.57 425.734 857.696C425.588 857.206 425.493 856.701 425.451 856.191C425.484 855.391 425.727 854.612 426.156 853.935C426.585 853.258 427.185 852.706 427.895 852.334C429.772 851.459 429.991 849.736 430.132 847.961C430.536 847.201 431 846.474 431.521 845.788C431.624 845.518 431.688 845.235 431.766 844.952V830.678C431.063 830.482 430.463 830.021 430.094 829.392C429.952 828.055 429.798 826.666 429.657 825.38C428.415 824.236 427.43 822.843 426.765 821.292C426.1 819.74 425.771 818.066 425.799 816.378C425.542 815.71 425.271 815.028 425.014 814.347C422.922 811.243 420.843 808.135 418.777 805.023L411.73 795.224C408.13 792.539 405.249 789.005 403.346 784.937C401.597 781.953 399.844 778.979 398.086 776.012L395.643 774.855C393.213 773.607 392.132 771.396 391.361 768.965C390.985 768.863 390.602 768.786 390.216 768.734C386.976 766.869 385.51 763.911 384.79 760.439C384.404 758.279 384.237 756.093 384.031 753.907C381.973 749.895 382.218 745.432 381.973 741.047C382.183 741.036 382.394 741.036 382.604 741.047C381.999 740.528 381.239 740.225 380.443 740.186C376.778 735.929 378.72 729.936 375.827 725.461C375.791 723.709 375.478 721.973 374.901 720.318L369.037 710.66C368.286 710.644 367.543 710.505 366.838 710.249C366.015 708.152 365.205 706.043 364.382 703.934C359.032 698.894 355.02 693.055 353.515 685.725L351.432 672.377C348.954 665.879 346.49 659.381 344.038 652.882C343.392 652.539 342.726 652.234 342.045 651.969C341.291 651.53 340.683 650.879 340.297 650.097C339.911 649.315 339.763 648.437 339.871 647.571C338.585 638.441 338.328 629.401 342.443 620.772C343.901 616.965 345.358 613.155 346.815 609.34C349.284 601.907 348.513 594.474 346.815 587.041C346.507 586.36 346.211 585.665 345.915 584.971C336.463 567.701 326.176 550.777 323.925 530.601C320.929 525.02 320.659 518.847 320.068 512.752C319.772 510.013 319.489 507.274 319.193 504.547C314.409 496.382 310.732 487.676 302.476 481.747C298.464 478.88 296.612 473.324 296.792 467.82C293.924 461.789 294.207 455.681 296.406 449.547C296.625 444.841 298.039 440.777 302.591 438.488L310.937 429.551L313.908 424.728C314.235 424.161 314.354 423.496 314.242 422.851C316.814 420.163 318.486 416.459 322.048 414.891C322.325 414.503 322.621 414.13 322.935 413.772C323.812 413.14 324.9 412.873 325.97 413.026L326.202 412.949C326.303 412.654 326.384 412.354 326.446 412.049C326.789 412.143 327.152 412.142 327.494 412.044C327.837 411.947 328.146 411.757 328.388 411.496H333.107C337.634 410.981 342.16 411.007 346.635 410.326L353.065 407.548L355.457 404.822L359.932 402.417C359.263 397.903 363.263 395.138 364.202 391.281C362.195 386.793 365.745 384.594 368.059 381.893C368.415 381.784 368.763 381.651 369.101 381.494C369.038 381.069 369.007 380.639 369.011 380.208L373.589 371.091C374.412 367.349 375.248 363.62 376.071 359.878C378.823 347.918 385.535 337.54 389.458 326.057C389.501 319.361 389.548 312.662 389.599 305.957C390.191 304.479 390.769 303 391.361 301.508C386.911 300.608 386.757 297.097 386.603 293.587ZM386.603 293.587C386.936 293.473 387.259 293.332 387.567 293.162C387.169 291.761 387.94 292.429 387.979 293.844C387.535 293.693 387.071 293.607 386.603 293.587ZM1256.9 917.146C1256.9 917.244 1256.9 917.343 1256.9 917.441L1256.41 917.789C1256.59 917.57 1256.73 917.351 1256.9 917.146ZM928.594 239.178C928.807 239.699 928.903 240.26 928.877 240.822C928.85 241.384 928.701 241.933 928.44 242.431C928.293 241.347 928.345 240.244 928.594 239.178ZM314.975 424.137C314.674 424.383 314.329 424.57 313.959 424.69L314.975 424.137Z" stroke="#713F12" stroke-width="2" stroke-miterlimit="10" stroke-linejoin="round"/>
</svg>
