<svg xmlns="http://www.w3.org/2000/svg" xmlns:xlink="http://www.w3.org/1999/xlink">
	<defs>
		<!-- Material Symbols -->

		<symbol id="arrow_drop_down" viewBox="0 0 24 24">
			<g>
				<path d="M12 15L7 10H17L12 15Z" />
			</g>
		</symbol>


		<symbol id="arrow_left" viewBox="0 0 24 24">
			<g>
				<path d="M7.825 13L13.425 18.6L12 20L4 12L12 4L13.425 5.4L7.825 11H20V13H7.825Z" />
			</g>
		</symbol>

		<symbol id="arrow_outward" viewBox="0 0 24 24">
			<g>
				<path d="M6.4 18L5 16.6L14.6 7H6V5H18V17H16V8.4L6.4 18Z" />
			</g>
		</symbol>

		<symbol id="arrow_right" viewBox="0 0 24 24">
			<g>
				<path d="M16.175 13.5H4V11.5H16.175L10.575 5.9L12 4.5L20 12.5L12 20.5L10.575 19.1L16.175 13.5Z" />
			</g>
		</symbol>

		<symbol id="check" viewBox="0 0 24 24">
			<g>
				<path d="M9.55 18.0001L3.85 12.3001L5.275 10.8751L9.55 15.1501L18.725 5.9751L20.15 7.4001L9.55 18.0001Z" />
			</g>
		</symbol>

		<symbol id="close" viewBox="0 0 24 24">
			<g>
				<path d="M6.4 19L5 17.6L10.6 12L5 6.4L6.4 5L12 10.6L17.6 5L19 6.4L13.4 12L19 17.6L17.6 19L12 13.4L6.4 19Z" />
			</g>
		</symbol>

		<symbol id="chevron_down" viewBox="0 0 24 24">
			<g>
				<path d="M12 15.3751L6 9.3751L7.4 7.9751L12 12.5751L16.6 7.9751L18 9.3751L12 15.3751Z" />
			</g>
		</symbol>

		<symbol id="chevron_up" viewBox="0 0 24 24">
			<g>
				<path d="M7.4 15.3751L6 13.9751L12 7.9751L18 13.9751L16.6 15.3751L12 10.7751L7.4 15.3751Z" />
			</g>
		</symbol>

		<symbol id="date_picker" viewBox="0 0 24 24">
			<g>
				<path
					d="M17 22V19H14V17H17V14H19V17H22V19H19V22H17ZM5 20C4.45 20 3.97917 19.8042 3.5875 19.4125C3.19583 19.0208 3 18.55 3 18V6C3 5.45 3.19583 4.97917 3.5875 4.5875C3.97917 4.19583 4.45 4 5 4H6V2H8V4H14V2H16V4H17C17.55 4 18.0208 4.19583 18.4125 4.5875C18.8042 4.97917 19 5.45 19 6V12.1C18.6667 12.05 18.3333 12.025 18 12.025C17.6667 12.025 17.3333 12.05 17 12.1V10H5V18H12C12 18.3333 12.025 18.6667 12.075 19C12.125 19.3333 12.2167 19.6667 12.35 20H5ZM5 8H17V6H5V8Z" />
			</g>
		</symbol>

		<symbol id="lock" viewBox="0 0 20 20">
			<g>
				<path
					d="M5.49417 18.0002C5.08143 18.0002 4.72923 17.8534 4.43756 17.5596C4.14589 17.2659 4.00006 16.9127 4.00006 16.5002V8.50024C4.00006 8.08774 4.14694 7.73462 4.44069 7.44087C4.73444 7.14712 5.08756 7.00024 5.50006 7.00024H6.00006V5.00024C6.00006 3.89358 6.39052 2.95024 7.17144 2.17024C7.95235 1.39024 8.8968 1.00024 10.0048 1.00024C11.1127 1.00024 12.0556 1.39024 12.8334 2.17024C13.6112 2.95024 14.0001 3.89358 14.0001 5.00024V7.00024H14.5001C14.9126 7.00024 15.2657 7.14712 15.5594 7.44087C15.8532 7.73462 16.0001 8.08774 16.0001 8.50024V16.5002C16.0001 16.9127 15.8531 17.2659 15.5592 17.5596C15.2653 17.8534 14.912 18.0002 14.4992 18.0002H5.49417ZM10.0045 14.0002C10.4182 14.0002 10.7709 13.8529 11.0626 13.5583C11.3542 13.2637 11.5001 12.9095 11.5001 12.4958C11.5001 12.0821 11.3528 11.7294 11.0581 11.4377C10.7635 11.1461 10.4094 11.0002 9.99564 11.0002C9.58192 11.0002 9.22923 11.1476 8.93756 11.4422C8.64589 11.7368 8.50006 12.091 8.50006 12.5047C8.50006 12.9184 8.64737 13.2711 8.94198 13.5627C9.2366 13.8544 9.59077 14.0002 10.0045 14.0002ZM7.50006 7.00024H12.5001V5.00024C12.5001 4.3058 12.257 3.71552 11.7709 3.22941C11.2848 2.7433 10.6945 2.50024 10.0001 2.50024C9.30562 2.50024 8.71534 2.7433 8.22923 3.22941C7.74312 3.71552 7.50006 4.3058 7.50006 5.00024V7.00024Z" />
			</g>
		</symbol>

		<symbol id="send" viewBox="0 0 24 24">
			<g>
				<path d="M3 20V14L11 12L3 10V4L22 12L3 20Z" />
			</g>
		</symbol>

		<!-- Social Media Logos -->
		<symbol id="facebook" viewBox="0 0 24 24">
			<g>
				<path
					d="M22 12.0607C22 6.504 17.5233 2 12 2C6.47667 2 2 6.504 2 12.0607C2 17.0833 5.656 21.2453 10.4373 22V14.9693H7.89867V12.06H10.4373V9.844C10.4373 7.32267 11.93 5.92933 14.2147 5.92933C15.308 5.92933 16.4533 6.126 16.4533 6.126V8.602H15.1913C13.9493 8.602 13.5627 9.378 13.5627 10.174V12.0607H16.336L15.8927 14.9687H13.5627V22C18.344 21.2453 22 17.0833 22 12.0607Z" />
			</g>
		</symbol>

		<symbol id="instagram" viewBox="0 0 24 24">
			<g>
				<path fill-rule="evenodd" clip-rule="evenodd"
					d="M12 3C9.5556 3 9.2496 3.0102 8.2896 3.054C7.3314 3.0978 6.6768 3.2502 6.1044 3.4728C5.5044 3.6984 4.9602 4.0524 4.5102 4.5108C4.05253 4.96028 3.69831 5.5041 3.4722 6.1044C3.2508 6.6768 3.0978 7.332 3.054 8.2902C3.0108 9.2496 3 9.555 3 12C3 14.445 3.0102 14.7504 3.054 15.7104C3.0978 16.6686 3.2502 17.3232 3.4728 17.8956C3.6984 18.4956 4.0524 19.0398 4.5108 19.4898C4.96029 19.9475 5.50411 20.3017 6.1044 20.5278C6.6768 20.7498 7.3314 20.9022 8.2896 20.946C9.2496 20.9898 9.5556 21 12 21C14.4444 21 14.7504 20.9898 15.7104 20.946C16.6686 20.9022 17.3232 20.7498 17.8956 20.5272C18.4956 20.3016 19.0398 19.9476 19.4898 19.4892C19.9475 19.0397 20.3017 18.4959 20.5278 17.8956C20.7498 17.3232 20.9022 16.6686 20.946 15.7104C20.9898 14.7504 21 14.4444 21 12C21 9.5556 20.9898 9.2496 20.946 8.2896C20.9022 7.3314 20.7498 6.6768 20.5272 6.1044C20.3012 5.50384 19.947 4.95979 19.4892 4.5102C19.0397 4.05253 18.4959 3.69831 17.8956 3.4722C17.3232 3.2508 16.668 3.0978 15.7098 3.054C14.7504 3.0108 14.445 3 12 3ZM12 4.6218C14.403 4.6218 14.688 4.6308 15.6372 4.674C16.5144 4.7142 16.9908 4.86 17.3082 4.9842C17.7282 5.1468 18.0282 5.3424 18.3432 5.6568C18.6582 5.9718 18.8532 6.2718 19.0158 6.6918C19.1394 7.0092 19.2858 7.4856 19.326 8.3628C19.3692 9.312 19.3782 9.597 19.3782 12C19.3782 14.403 19.3692 14.688 19.326 15.6372C19.2858 16.5144 19.14 16.9908 19.0158 17.3082C18.8718 17.6991 18.6419 18.0528 18.3432 18.3432C18.0528 18.642 17.6992 18.8718 17.3082 19.0158C16.9908 19.1394 16.5144 19.2858 15.6372 19.326C14.688 19.3692 14.4036 19.3782 12 19.3782C9.5964 19.3782 9.312 19.3692 8.3628 19.326C7.4856 19.2858 7.0092 19.14 6.6918 19.0158C6.30087 18.8718 5.9472 18.6419 5.6568 18.3432C5.35811 18.0528 5.12828 17.6991 4.9842 17.3082C4.8606 16.9908 4.7142 16.5144 4.674 15.6372C4.6308 14.688 4.6218 14.403 4.6218 12C4.6218 9.597 4.6308 9.312 4.674 8.3628C4.7142 7.4856 4.86 7.0092 4.9842 6.6918C5.1468 6.2718 5.3424 5.9718 5.6568 5.6568C5.94716 5.35803 6.30085 5.12819 6.6918 4.9842C7.0092 4.8606 7.4856 4.7142 8.3628 4.674C9.312 4.6308 9.597 4.6218 12 4.6218Z" />
				<path fill-rule="evenodd" clip-rule="evenodd"
					d="M12 15.003C11.6056 15.003 11.2151 14.9253 10.8508 14.7744C10.4865 14.6235 10.1554 14.4023 9.87656 14.1234C9.5977 13.8446 9.3765 13.5135 9.22559 13.1492C9.07467 12.7849 8.997 12.3944 8.997 12C8.997 11.6056 9.07467 11.2151 9.22559 10.8508C9.3765 10.4865 9.5977 10.1554 9.87656 9.87656C10.1554 9.59771 10.4865 9.37651 10.8508 9.22559C11.2151 9.07468 11.6056 8.997 12 8.997C12.7964 8.997 13.5603 9.31339 14.1234 9.87656C14.6866 10.4397 15.003 11.2036 15.003 12C15.003 12.7964 14.6866 13.5603 14.1234 14.1234C13.5603 14.6866 12.7964 15.003 12 15.003ZM12 7.374C10.7731 7.374 9.59647 7.86138 8.72892 8.72893C7.86138 9.59647 7.374 10.7731 7.374 12C7.374 13.2269 7.86138 14.4035 8.72892 15.2711C9.59647 16.1386 10.7731 16.626 12 16.626C13.2269 16.626 14.4035 16.1386 15.2711 15.2711C16.1386 14.4035 16.626 13.2269 16.626 12C16.626 10.7731 16.1386 9.59647 15.2711 8.72893C14.4035 7.86138 13.2269 7.374 12 7.374ZM17.9718 7.29C17.9718 7.58002 17.8566 7.85815 17.6515 8.06322C17.4464 8.2683 17.1683 8.3835 16.8783 8.3835C16.5883 8.3835 16.3101 8.2683 16.1051 8.06322C15.9 7.85815 15.7848 7.58002 15.7848 7.29C15.7848 6.99999 15.9 6.72185 16.1051 6.51678C16.3101 6.31171 16.5883 6.1965 16.8783 6.1965C17.1683 6.1965 17.4464 6.31171 17.6515 6.51678C17.8566 6.72185 17.9718 6.99999 17.9718 7.29Z" />
			</g>
		</symbol>

		<symbol id="twitter" viewBox="0 0 24 24">
			<g>
				<path
					d="M19.9525 7.9201C19.9647 8.09642 19.9647 8.27273 19.9647 8.45067C19.9647 13.8726 15.8371 20.1257 8.28966 20.1257V20.1224C6.06013 20.1257 3.8769 19.487 2 18.2829C2.32419 18.3219 2.65001 18.3414 2.97664 18.3422C4.82429 18.3438 6.61913 17.7239 8.07272 16.5823C6.31688 16.549 4.77717 15.4042 4.23928 13.7328C4.85436 13.8514 5.48812 13.8271 6.09181 13.6621C4.17753 13.2754 2.80033 11.5935 2.80033 9.64019C2.80033 9.62232 2.80033 9.60525 2.80033 9.58819C3.37071 9.90588 4.00934 10.0822 4.6626 10.1017C2.85964 8.89674 2.30388 6.49821 3.39265 4.62293C5.47593 7.1864 8.54966 8.7448 11.8493 8.90974C11.5186 7.4846 11.9703 5.9912 13.0364 4.98937C14.689 3.43585 17.2882 3.51547 18.8418 5.16731C19.7607 4.98612 20.6415 4.64893 21.4475 4.17117C21.1412 5.121 20.5001 5.92782 19.6437 6.44052C20.457 6.34464 21.2517 6.12689 22 5.79457C21.4491 6.62008 20.7552 7.33916 19.9525 7.9201Z" />
			</g>
		</symbol>

		<symbol id="youtube" viewBox="0 0 24 24">
			<g>
				<path fill-rule="evenodd" clip-rule="evenodd"
					d="M19.792 5.41471C20.6521 5.64577 21.3325 6.32614 21.5635 7.18621C21.9872 8.75232 22 12.0001 22 12.0001C22 12.0001 22 15.2607 21.5764 16.8139C21.3453 17.674 20.665 18.3544 19.8049 18.5854C18.2516 19.0091 12 19.0091 12 19.0091C12 19.0091 5.74839 19.0091 4.19512 18.5854C3.33504 18.3544 2.65469 17.674 2.42362 16.8139C2 15.2478 2 12.0001 2 12.0001C2 12.0001 2 8.75232 2.41078 7.19905C2.64185 6.33897 3.32221 5.65861 4.18229 5.42755C5.73556 5.00392 11.9872 4.99109 11.9872 4.99109C11.9872 4.99109 18.2388 4.99109 19.792 5.41471ZM15.1836 12.0001L9.99743 15.0039V8.99623L15.1836 12.0001Z" />
			</g>
		</symbol>

		<!-- Logos -->
		<symbol id="gizzada_software" viewBox="0 0 32 32">
			<path
				d="M13.9199 29.9387C12.3896 29.8379 10.7547 29.4272 9.17617 28.7471C8.23792 28.3429 8.23946 28.345 8.72166 28.1241C8.94672 28.021 9.4406 27.7948 9.81922 27.6213L10.5076 27.3059L11.3241 27.5793C13.7866 28.4042 16.1593 28.4106 18.5798 27.5991C21.7449 26.538 24.228 24.2898 25.6318 21.2145C26.3057 19.7382 26.6586 18.2118 26.7392 16.4253L26.7836 15.4436L27.7282 14.4892C28.2477 13.9642 28.6872 13.5493 28.7049 13.5672C28.7704 13.6335 28.8906 15.0188 28.8906 15.7084C28.8906 21.1724 25.7678 26.178 20.8629 28.5766C19.3279 29.3272 17.7341 29.7746 16.0029 29.9408C15.1771 30.0201 15.1547 30.0201 13.9199 29.9387ZM2.85174 28.8657C2.19351 28.7765 1.86225 28.6531 1.57477 28.3901C0.96603 27.8333 0.830636 27.0174 1.21742 26.2369C1.48939 25.6881 1.77624 25.3422 2.1891 25.0653C2.37183 24.9428 2.5405 24.8425 2.56393 24.8425C2.58737 24.8425 2.42797 25.0355 2.2097 25.2714C1.69976 25.8225 1.41375 26.3909 1.37525 26.9298C1.34645 27.3312 1.35377 27.3515 1.6442 27.6703C2.09509 28.1656 2.54985 28.3157 3.45482 28.2678C4.13563 28.2317 5.26247 27.9573 5.86624 27.6805C5.9838 27.6266 6.30346 27.4945 6.57662 27.3869C8.06687 26.7999 11.1687 25.1824 12.7953 24.1441C16.0302 22.0791 18.689 20.0024 23.628 15.683C24.4864 14.9323 25.5983 13.9786 26.0989 13.5637C26.9606 12.8496 29.3298 10.6827 29.6354 10.3292L29.7773 10.165L29.5711 10.2995C29.4577 10.3735 29.3779 10.3957 29.3938 10.349C29.4333 10.2326 30.3856 9.25336 30.4594 9.25336C30.4921 9.25336 30.6205 9.14021 30.7448 9.00192C30.9375 8.78754 31.0166 8.75048 31.2821 8.75048C31.5283 8.75048 31.63 8.79057 31.769 8.94244C32.0044 9.19964 32.0516 9.43136 31.9481 9.8229C31.825 10.2892 31.4736 10.6183 31.0988 10.6183C31.0219 10.6183 30.8606 10.702 30.7406 10.8043C30.478 11.028 30.4518 10.9452 30.6996 10.6746C30.9113 10.4434 30.9183 10.4028 30.7469 10.4028C30.5701 10.4028 30.5083 10.4788 30.5971 10.5871C30.6521 10.6543 30.5224 10.7974 30.0821 11.1552C29.7584 11.4183 29.1423 11.9372 28.713 12.3084C28.2838 12.6795 27.6724 13.2027 27.3545 13.471C27.0365 13.7393 26.3224 14.3629 25.7676 14.8568C23.3546 17.0046 20.4384 19.5178 19.3121 20.4202C19.0195 20.6547 18.6364 20.9634 18.4607 21.1064C18.2851 21.2494 17.7264 21.6754 17.2191 22.0532C14.5934 24.0085 12.4183 25.3932 10.266 26.4795C7.93586 27.6557 6.39263 28.3319 5.40595 28.6089C5.09819 28.6953 3.25301 28.9676 3.24409 28.9279C3.24292 28.923 3.0664 28.8948 2.85174 28.8657ZM29.503 11.3187C29.8688 11.0125 30.2299 10.762 30.3055 10.762C30.487 10.762 30.5455 10.6554 30.4212 10.551C30.3434 10.4856 30.2932 10.4973 30.1914 10.6046C30.1197 10.6801 29.5822 11.1447 28.9968 11.6371C28.4115 12.1295 27.8847 12.5932 27.8262 12.6676C27.7241 12.7973 28.0478 12.5369 29.503 11.3187ZM29.7323 10.8509C30.1613 10.4463 30.3185 10.252 30.2991 10.15C30.2766 10.0323 30.1775 10.0979 29.6983 10.5471C29.3827 10.8431 29.1358 11.0989 29.1496 11.1155C29.1633 11.1321 29.2486 11.0755 29.3387 10.9898C29.4289 10.904 29.5325 10.8349 29.5691 10.8362C29.6057 10.8374 29.4279 11.0345 29.1743 11.2738C28.9206 11.5132 28.8088 11.6419 28.9259 11.5599C29.043 11.4779 29.4059 11.1588 29.7323 10.8509ZM29.8128 10.5824C29.9451 10.4441 30.0694 10.331 30.0889 10.331C30.1085 10.331 30.0161 10.4441 29.8838 10.5824C29.7514 10.7207 29.6271 10.8338 29.6076 10.8338C29.5881 10.8338 29.6804 10.7207 29.8128 10.5824ZM31.5333 10.1689C31.6406 10.0946 31.7284 9.97327 31.7284 9.89927C31.7284 9.82527 31.7602 9.74474 31.7994 9.72032C31.8384 9.6959 31.8703 9.57836 31.8703 9.45912C31.8703 9.21996 31.5393 8.82233 31.3401 8.82233C31.1509 8.82233 30.8061 9.0334 30.8061 9.14923C30.8061 9.20846 30.7263 9.28765 30.6287 9.3252C30.4875 9.37956 30.4514 9.4433 30.4514 9.63772C30.4514 9.77205 30.4308 9.98528 30.406 10.1116L30.3605 10.3412L30.8493 10.3226C31.1877 10.3098 31.3982 10.2625 31.5333 10.1689ZM30.3204 9.78956C30.2892 9.61009 30.2656 9.5871 30.1723 9.64552C30.0412 9.72753 30.0815 9.98544 30.2206 9.95646C30.2995 9.94005 30.3359 9.87918 30.3204 9.78956ZM7.96551 28.1399C7.70496 27.9795 7.69818 27.9477 7.90697 27.8645C7.9948 27.8294 8.48472 27.6249 8.99575 27.4097C9.91396 27.0231 9.92754 27.0199 10.1501 27.1364L10.3753 27.2543L9.2795 27.7643L8.18371 28.2743L7.96551 28.1399ZM6.29245 26.9973C6.22162 26.918 6.17675 26.8431 6.19276 26.8307C6.20887 26.8184 6.64546 26.6226 7.16314 26.3957C8.09247 25.9883 8.279 25.9546 8.45034 26.1637C8.51136 26.2382 8.33371 26.3508 7.60507 26.6997C7.09767 26.9426 6.62374 27.1414 6.55189 27.1414C6.48003 27.1414 6.36329 27.0766 6.29245 26.9973ZM5.19549 26.0099C4.3707 25.1682 3.82652 24.4815 3.25617 23.5627C0.783613 19.5794 0.522418 14.4495 2.57201 10.1259C4.68735 5.66364 8.88439 2.62497 13.7059 2.0649C14.8766 1.92892 16.9387 2.015 18.0187 2.2449C22.1854 3.13201 25.5295 5.71974 27.4392 9.53477L27.8451 10.3455L27.0031 11.2003C26.54 11.6704 26.144 12.0551 26.1232 12.0551C26.1022 12.0551 25.9476 11.7237 25.7793 11.3187C24.879 9.15184 23.3 7.24568 21.3036 5.91571C20.1675 5.15885 19.4668 4.81916 18.422 4.51869C17.1147 4.14274 16.6964 4.07363 15.4699 4.03083C14.0952 3.98288 13.2399 4.07003 12.1457 4.36957C11.1269 4.64847 10.7879 4.7681 10.1052 5.08961C6.6088 6.73621 4.18823 9.90672 3.40703 13.863C3.17724 15.0267 3.17538 17.1203 3.40302 18.2722C3.80797 20.3207 4.53293 21.9816 5.69179 23.5161C6.1501 24.123 7.23667 25.2581 7.7062 25.6206C7.82371 25.7113 7.88517 25.8052 7.84812 25.8375C7.77201 25.9037 5.99826 26.7103 5.92866 26.7103C5.90279 26.7103 5.57297 26.3951 5.19549 26.0099ZM10.9401 23.7908C10.7645 23.651 10.5749 23.5105 10.5187 23.4787C10.433 23.4302 10.4306 23.3731 10.504 23.1259C10.5884 22.8408 10.6765 22.7612 10.7586 22.8958C10.7806 22.9314 10.892 22.9936 11.0067 23.0341L11.2152 23.1077L10.9713 22.7843C10.712 22.4403 10.6809 22.3322 10.805 22.2065C10.861 22.1498 10.9347 22.1556 11.0711 22.2278C11.1747 22.2825 11.2949 22.3276 11.3382 22.3278C11.463 22.3286 11.5682 23.6662 11.4649 23.9388C11.402 24.1047 11.2973 24.075 10.9401 23.7908ZM17.7543 23.4922C17.692 23.1946 17.6876 22.9947 17.7392 22.7918C17.7788 22.6356 17.8318 22.3445 17.857 22.1449C17.8862 21.9134 17.9482 21.7533 18.0282 21.7027C18.1352 21.635 18.1662 21.6587 18.24 21.8656C18.302 22.039 18.3053 22.148 18.2518 22.2491C18.2107 22.3267 18.1449 22.4814 18.1055 22.5927L18.034 22.795L18.2156 22.5892C18.3155 22.476 18.4135 22.3999 18.4334 22.4201C18.4817 22.469 18.8874 23.5725 18.8654 23.5948C18.7929 23.6682 18.1326 23.9086 18.0035 23.9086C17.8637 23.9086 17.8298 23.852 17.7543 23.4922ZM12.4467 23.58C11.7205 23.4189 11.7205 23.419 11.7205 22.7441V22.1594L11.9156 22.3333L12.1108 22.5072L11.9247 22.2919C11.7708 22.1138 11.7312 21.9813 11.6953 21.5229L11.6518 20.9691L11.9089 21.1457C12.0503 21.2429 12.2306 21.3223 12.3095 21.3223C12.4112 21.3223 12.3359 21.2373 12.0513 21.0311C11.6665 20.752 11.5848 20.603 11.7085 20.4056C11.7505 20.3386 11.8102 20.3641 11.938 20.5037C12.033 20.6075 12.422 20.9359 12.8025 21.2336L13.4942 21.7749L13.4912 22.2491C13.4859 23.1034 13.2626 23.7143 12.9663 23.6858C12.9248 23.6819 12.6912 23.6343 12.4467 23.58ZM16.064 23.5193C16.0167 23.4136 15.9775 23.319 15.9775 23.3093C15.9775 23.2994 16.0937 23.2836 16.2357 23.2737C16.3776 23.2638 16.5769 23.212 16.6785 23.1581C16.8517 23.0662 16.8411 23.0625 16.509 23.0979C16.2799 23.1222 16.18 23.1113 16.2258 23.0663C16.445 22.8514 17.4834 22.1048 17.5165 22.1383C17.538 22.1601 17.5331 22.4836 17.5053 22.857C17.4477 23.6341 17.4936 23.5907 16.6491 23.6666C16.159 23.7106 16.149 23.7081 16.064 23.5193ZM19.2102 23.3666C18.9271 22.9291 18.6736 22.4581 18.6736 22.3696C18.6736 22.3168 18.7633 22.2361 18.8729 22.1901C18.9825 22.1442 19.2456 21.9625 19.4577 21.7863C19.893 21.4248 19.9507 21.4046 19.9507 21.6144C19.9507 21.7907 19.8776 21.9382 19.5144 22.4945C19.2452 22.9069 19.2443 22.9103 19.4487 22.763C19.5626 22.6809 19.7381 22.5147 19.8387 22.3936L20.0217 22.1734L20.0191 22.6638C20.0166 23.1421 20.0103 23.1591 19.7593 23.3518C19.4415 23.596 19.3601 23.5981 19.2102 23.3666ZM13.92 22.8609C13.92 22.734 14.0727 22.7562 14.1166 22.8896C14.1322 22.9365 14.0941 22.9749 14.0323 22.9749C13.9705 22.9749 13.92 22.9234 13.92 22.8609ZM14.2156 22.7751C14.1341 22.7474 13.8113 22.1097 13.865 22.0823C13.8757 22.0769 14.1321 22.1228 14.4348 22.1845L14.9851 22.2967L14.6476 22.5518C14.462 22.6922 14.2676 22.7926 14.2156 22.7751ZM14.568 21.9661C14.2087 21.8844 12.2254 20.457 12.0744 20.1713C11.958 19.9509 11.9055 18.9411 11.9902 18.5496C12.0322 18.3558 12.1063 17.9225 12.1549 17.5867C12.2313 17.0599 12.2503 17.0088 12.2932 17.2143C12.3206 17.3453 12.3655 17.7252 12.3929 18.0584C12.431 18.5236 12.4672 18.6643 12.5481 18.6643C12.6061 18.6643 12.8826 18.4922 13.1626 18.2818C13.4426 18.0714 13.8179 17.8147 13.9966 17.7112C14.1753 17.6078 14.3618 17.474 14.411 17.414C14.4962 17.31 14.4661 16.4188 14.2937 13.9352C14.2757 13.6739 14.2976 13.3939 14.3455 13.2768C14.4571 13.0041 14.7882 12.8649 15.0696 12.9725C15.2156 13.0283 15.3277 13.0302 15.4391 12.9788C15.6457 12.8834 16.0638 13.0516 16.22 13.2929C16.4174 13.598 16.5478 14.3583 16.6362 15.7188L16.7225 17.0478L17.432 17.2993L18.1415 17.5507L18.163 17.8829C18.1952 18.3844 17.7863 20.0988 17.6037 20.2282C17.5242 20.2846 17.086 20.6302 16.6298 20.9961C15.499 21.9033 15.1058 22.0883 14.568 21.9661ZM15.7319 19.0442C16.3864 18.2559 16.4211 18.1425 15.8798 18.561L15.5469 18.8183L15.1414 18.6827C14.7594 18.5549 14.7295 18.5278 14.6254 18.2149L14.5149 17.8827L14.4284 18.3937C14.3805 18.6748 14.3685 18.9317 14.401 18.9647C14.4669 19.0314 15.2611 19.3663 15.377 19.3763C15.4176 19.3798 15.5773 19.2303 15.7319 19.0442ZM10.9046 21.8007C10.534 21.6559 9.62107 21.2247 9.46763 21.1218C9.39948 21.0763 9.44517 20.8715 9.66227 20.2468C9.81825 19.7984 9.95401 19.4241 9.96407 19.415C9.97432 19.4059 10.2058 19.4587 10.4789 19.5324C10.7521 19.606 11.0793 19.6671 11.2062 19.6681C11.4278 19.67 11.4367 19.6813 11.4367 19.9589C11.4367 20.2797 11.4441 20.2745 10.6918 20.499C10.2755 20.6233 10.2708 20.6275 10.4789 20.6894C10.596 20.724 10.8163 20.7344 10.9685 20.7116L11.2452 20.6706L10.9696 21.0111C10.6899 21.3567 10.7214 21.364 11.1352 21.0496L11.3658 20.8744L11.3604 21.1164C11.3575 21.2495 11.3336 21.4891 11.3072 21.6489L11.2594 21.9393L10.9046 21.8007ZM18.5804 21.715C18.4341 21.4046 18.4338 21.3942 18.5701 21.3942C18.7171 21.3942 19.218 21.1314 19.287 21.018C19.3172 20.9681 19.2557 20.9844 19.1494 21.0551C18.9027 21.2185 18.5814 21.3438 18.6352 21.2557C18.7381 21.0871 19.898 20.2351 19.9493 20.2904C19.981 20.3245 20.0279 20.4821 20.0532 20.6402C20.0962 20.907 20.0781 20.95 19.8016 21.2412C19.4996 21.5594 18.9243 21.9691 18.7794 21.9691C18.7359 21.9691 18.6462 21.8547 18.5804 21.715ZM8.9007 21.6636C8.86213 21.6141 8.74219 21.3719 8.6342 21.1252L8.4378 20.6766L8.68097 20.3784C8.88234 20.1314 8.96934 20.0789 9.18717 20.0726C9.33182 20.0685 9.4502 20.082 9.45016 20.1026C9.45013 20.1232 9.38869 20.3643 9.31361 20.6385C9.18649 21.1027 9.18526 21.1426 9.29603 21.2213C9.68375 21.4969 9.77104 21.6057 9.6631 21.679C9.5122 21.7813 8.98437 21.7706 8.9007 21.6636ZM20.4248 21.6537C20.3965 21.579 20.2853 20.3392 20.2717 19.9459C20.2707 19.9198 20.5095 19.7006 20.8022 19.4587C21.4324 18.9379 21.5015 18.9956 21.1561 19.7544C21.0312 20.0289 20.9436 20.2682 20.9615 20.2863C20.9932 20.3184 21.2829 19.9138 21.4239 19.6404C21.4865 19.5191 21.5121 19.5425 21.6421 19.84L21.7894 20.1771L21.5736 20.5522C21.3731 20.9008 20.6185 21.7534 20.5105 21.7534C20.4841 21.7534 20.4456 21.7084 20.4248 21.6537ZM8.8032 19.5085C8.60055 19.3405 8.37501 19.1215 8.30195 19.0217C8.16946 18.8408 8.16995 18.8383 8.50494 18.0403L8.84072 17.2403L9.0131 17.3776C9.1079 17.4531 9.2465 17.5149 9.32114 17.5149C9.43977 17.5149 9.42869 17.4795 9.23298 17.2329L9.00914 16.9509L9.29566 16.0655C9.45325 15.5785 9.60419 15.067 9.63109 14.9287C9.71633 14.4904 10.0184 13.4811 10.1737 13.1155L10.3234 12.763L10.4946 12.9658L10.6657 13.1686L10.6212 12.9531C10.5968 12.8346 10.5606 12.6703 10.5409 12.5881C10.5155 12.4817 10.5964 12.337 10.8222 12.0852C10.9965 11.8909 11.1571 11.7495 11.179 11.7711C11.201 11.7927 11.1712 11.9703 11.1132 12.1659C10.9667 12.6587 11.0227 12.8164 11.1886 12.3784C11.2634 12.1808 11.3849 11.9142 11.4586 11.7858L11.5927 11.5524L11.8077 11.678C11.926 11.7471 12.1827 11.948 12.3781 12.1245C12.7129 12.4268 12.727 12.4327 12.6214 12.2259C12.524 12.0352 12.2502 11.7882 11.7651 11.4533C11.6387 11.3661 11.6471 11.3375 11.9311 10.8821C12.1339 10.5569 12.2747 10.4028 12.3691 10.4028C12.6816 10.4028 13.1046 10.7492 13.4217 11.2649C13.6416 11.6223 13.5391 11.2619 13.302 10.8437C13.1686 10.6083 13.0384 10.4921 12.7789 10.3767C12.589 10.2923 12.4328 10.1978 12.4319 10.1668C12.4296 10.0908 12.9265 9.87517 13.9768 9.49628C15.0195 9.12011 15.3466 9.10037 16.0302 9.37239C16.6083 9.60245 16.6581 9.63915 16.8369 9.96663L16.977 10.2232L16.9355 9.95379C16.9125 9.80562 16.9174 9.68439 16.9457 9.68439C17.1305 9.68439 18.7178 10.0793 18.7536 10.1342C18.8167 10.231 18.7209 10.6048 18.5431 10.9567C18.3513 11.3361 18.3505 11.3953 18.5396 11.2221C18.7175 11.0592 18.9569 10.6044 18.9599 10.4236C18.9639 10.1906 19.096 10.4996 19.1724 10.9206C19.2376 11.2794 19.2276 11.3288 18.9938 11.7983C18.8576 12.0719 18.7565 12.3063 18.7692 12.3191C18.7818 12.3319 18.8982 12.2088 19.0277 12.0455L19.2633 11.7487L19.4116 12.2072L19.5598 12.6657L19.5822 12.3171C19.5944 12.1253 19.573 11.8186 19.5344 11.6355C19.4958 11.4524 19.4704 11.2964 19.4779 11.2888C19.4852 11.2812 19.707 11.5635 19.9704 11.9161L20.4493 12.5572L20.3084 12.9808C20.2309 13.2137 20.0664 13.5938 19.9427 13.8253L19.718 14.2462L19.9315 14.0444C20.0489 13.9333 20.2339 13.6586 20.3426 13.4338L20.5402 13.0251L20.6714 13.6716C20.7435 14.0271 20.8325 14.406 20.869 14.5136C20.9351 14.7078 20.8736 15.0713 20.7461 15.241C20.7119 15.2865 20.5648 15.5501 20.4195 15.8267L20.1553 16.3295L20.4535 16.0063C20.6175 15.8285 20.8228 15.5218 20.9096 15.3248L21.0674 14.9666L21.2488 15.5762C21.583 16.6992 21.6034 16.8072 21.4995 16.9048C21.108 17.2729 20.2227 18.0283 20.2071 18.0075C20.1964 17.9934 20.1302 17.7556 20.0597 17.479C19.8635 16.7099 19.6356 16.1881 19.2678 15.6662C18.9517 15.2178 18.3962 13.9638 18.392 13.6894C18.391 13.6203 18.3554 13.5637 18.3135 13.5637C18.2681 13.5637 18.2524 13.6438 18.2754 13.7613C18.4596 14.71 18.5455 15.6231 18.5182 16.3432C18.5016 16.7885 18.4656 17.1752 18.4386 17.2025C18.3678 17.2742 17.7042 17.1058 17.3485 16.9259C17.181 16.8413 17.0246 16.7099 17.0008 16.6341C16.9275 16.4001 17.0467 15.3735 17.1581 15.2799C17.214 15.2329 17.4236 15.1785 17.6238 15.1591C17.9514 15.1272 17.9747 15.1138 17.8563 15.0262C17.7036 14.9132 17.4098 14.9 17.1629 14.995C17.0051 15.0558 16.9837 15.0383 16.9099 14.7891C16.8655 14.6394 16.8294 14.3977 16.8294 14.2521C16.8294 14.0149 16.8567 13.9759 17.0914 13.8765C17.2356 13.8156 17.4615 13.7479 17.5936 13.7262C17.7594 13.699 17.8045 13.6681 17.7395 13.6263C17.5922 13.5318 17.2396 13.554 17.0164 13.6719C16.9046 13.7309 16.7854 13.7792 16.7515 13.7792C16.7178 13.7792 16.6054 13.6095 16.5022 13.4021C16.1154 12.6246 15.8633 12.4112 15.5194 12.5698C15.3804 12.634 15.3094 12.6264 15.1674 12.5323C15.0697 12.4674 14.9486 12.4148 14.8985 12.4154C14.8483 12.416 14.5804 12.6069 14.3031 12.8396C13.6237 13.4097 13.576 13.663 13.8784 15.0915C13.9724 15.5354 14.0716 16.2096 14.099 16.5899L14.1488 17.2813L13.4058 17.7773L12.6628 18.2734L12.6199 17.5557C12.5794 16.8819 12.5872 16.8195 12.751 16.5369C12.8468 16.3713 13.0597 16.1357 13.2241 16.0133C13.3884 15.8909 13.4909 15.7908 13.4517 15.7908C13.3399 15.7908 12.9111 16.1288 12.6987 16.3844L12.5055 16.6169L12.5035 16.3565C12.5025 16.2133 12.4835 16.0031 12.461 15.8895C12.4113 15.6366 12.6419 15.2596 12.9927 15.0202C13.1729 14.8972 13.1988 14.8569 13.0974 14.8571C12.9312 14.8575 12.5016 15.1155 12.5016 15.215C12.5016 15.2551 12.4743 15.2879 12.4407 15.2879C12.407 15.2879 12.35 15.1505 12.3134 14.9826L12.2471 14.6772L12.0951 15.1442C11.8882 15.7798 11.812 16.2327 11.7205 17.3712C11.5989 18.8831 11.5881 18.943 11.415 19.0531C11.2397 19.1647 10.5548 19.106 10.0538 18.9366L9.77001 18.8406L9.79296 18.4112C9.80565 18.1751 9.87038 17.7092 9.93692 17.3759C10.0571 16.7742 10.0601 16.7688 10.3686 16.6036C10.545 16.5092 10.8046 16.4368 10.9696 16.4362C11.1832 16.4354 11.2318 16.4167 11.1535 16.3655C10.9921 16.2599 10.6048 16.2801 10.363 16.4067C10.2442 16.4689 10.1373 16.5093 10.1254 16.4965C10.1039 16.4736 10.2243 15.6283 10.2523 15.6038C10.2601 15.5968 10.4742 15.4748 10.7278 15.3326C11.2007 15.0675 11.1375 14.9664 10.6323 15.1801C10.4922 15.2394 10.3648 15.2879 10.3492 15.2879C10.3336 15.2879 10.402 15.0134 10.5014 14.678C10.668 14.1151 10.6753 13.8709 10.5204 14.0355C10.3701 14.1953 9.67364 16.5094 9.60294 17.0839C9.38618 18.8451 9.36783 19.1021 9.45145 19.2041C9.55793 19.334 9.41533 19.8138 9.27043 19.8138C9.21639 19.8138 9.0058 19.6764 8.8032 19.5085ZM15.5838 11.7064C15.6597 11.4752 15.7558 11.3311 15.8689 11.2789C15.9629 11.2356 16.0736 11.1359 16.1151 11.0574C16.1851 10.925 16.1728 10.9176 15.9444 10.9551C15.7021 10.9949 15.6975 10.9908 15.6515 10.6992C15.6256 10.5362 15.5816 10.4028 15.5535 10.4028C15.5252 10.4028 15.4522 10.5321 15.3909 10.6902C15.2882 10.9547 15.2579 10.9777 15.0077 10.9804L14.7359 10.9833L14.9568 11.1779C15.0782 11.285 15.2181 11.5019 15.2676 11.6599C15.4245 12.161 15.4343 12.1624 15.5838 11.7064ZM18.2479 19.5395C18.2479 19.463 18.3574 18.968 18.4911 18.4397C18.6249 17.9113 18.7868 17.188 18.851 16.8324C18.9151 16.4768 18.9843 16.1051 19.0047 16.0063C19.0331 15.8693 19.0983 16.0055 19.2797 16.581C19.4106 16.9959 19.5192 17.4426 19.5213 17.5738C19.5252 17.8268 19.2784 18.2457 18.8195 18.7645L18.5672 19.0498L18.8035 18.911C18.9334 18.8346 19.1968 18.6044 19.3886 18.3995C19.7229 18.0423 19.7391 18.034 19.7798 18.1978C19.8373 18.4298 19.8169 18.4548 19.0749 19.0501C18.2567 19.7067 18.2479 19.7119 18.2479 19.5395ZM21.4879 15.5932C21.3564 15.372 20.6917 12.5739 20.7554 12.5094C20.773 12.4917 20.9376 12.6642 21.1214 12.8927C21.4424 13.2916 21.4544 13.3232 21.4246 13.6874C21.389 14.121 21.4153 14.1618 21.5249 13.8435L21.6017 13.6204L21.8058 13.9783L22.0098 14.3362L21.8946 14.7941C21.7861 15.2248 21.6153 15.6471 21.5495 15.6471C21.5334 15.6471 21.5055 15.6229 21.4879 15.5932ZM26.6909 14.8683C26.6909 14.6242 26.7543 14.5227 27.2408 13.9868C27.9395 13.2172 28.5135 12.6777 28.5549 12.7518C28.5724 12.7835 28.6093 12.9039 28.6367 13.0195C28.6831 13.2157 28.6245 13.2922 27.7429 14.1868C27.224 14.7134 26.775 15.1442 26.7452 15.1442C26.7154 15.1442 26.6909 15.0201 26.6909 14.8683ZM8.95345 14.6772C8.82105 14.539 8.67113 14.4258 8.62026 14.4258C8.46463 14.4258 8.51476 14.252 8.82891 13.7026L9.13008 13.1759L9.17889 13.5205C9.25071 14.0287 9.29811 14.0001 9.25637 13.4737C9.22708 13.1047 9.24807 12.9617 9.36465 12.7333L9.5092 12.4502L9.5818 12.6408C9.66865 12.8689 9.8398 13.0051 9.78244 12.8005C9.64419 12.3075 9.6541 12.2357 9.8916 12.0084C10.1359 11.7745 11.2162 11.1612 11.2764 11.2221C11.2955 11.2416 11.1609 11.4128 10.9769 11.6025C10.7929 11.7922 10.5689 12.0443 10.4792 12.1629C10.2938 12.4078 9.85075 13.2397 9.79052 13.456C9.76855 13.535 9.68087 13.8575 9.59573 14.1727C9.44849 14.7179 9.35007 14.9287 9.24267 14.9287C9.21631 14.9287 9.08585 14.8155 8.95345 14.6772ZM26.2694 12.7213C26.2284 12.5722 26.1949 12.4129 26.1947 12.3673C26.1945 12.3216 26.5848 11.9125 27.062 11.458L27.9297 10.6317L28.0198 10.8488C28.0694 10.9682 28.1099 11.1036 28.1099 11.1497C28.1099 11.259 27.0858 12.3766 26.6681 12.7232L26.3438 12.9923L26.2694 12.7213Z" />
		</symbol>



		<symbol id="not_primitive" viewBox="0 0 124 14">
			<path
				d="M0.0260001 13.5V0.809999H6.452L9.584 12.69H10.394L9.764 10.692V0.809999H13.04V13.5H6.614L3.482 1.62H2.672L3.302 3.618V13.5H0.0260001ZM13.6718 8.928C13.6718 5.706 15.9938 4.212 18.8558 4.212C21.6818 4.212 24.0218 5.706 24.0218 8.928C24.0218 12.186 21.6818 13.68 18.8558 13.68C15.9938 13.68 13.6718 12.186 13.6718 8.928ZM16.7498 8.928C16.7498 10.296 17.5958 10.962 18.8558 10.962C20.0798 10.962 20.9258 10.296 20.9258 8.928C20.9258 7.578 20.0798 6.93 18.8558 6.93C17.5958 6.93 16.7498 7.578 16.7498 8.928ZM32.3952 10.782V13.5H27.4992C26.4912 13.5 25.9332 12.942 25.9332 11.916V7.11H23.7372V4.392H25.9332V2.772L29.0112 1.8V4.392H32.0352V7.11H29.0112V10.8L32.3952 10.782ZM37.3823 13.5V0.809999H42.3863C46.3643 0.809999 48.1283 2.142 48.1283 5.436C48.1283 8.694 46.3643 10.026 42.3863 10.026H40.6583V13.5H37.3823ZM40.6583 7.164H42.5843C44.1683 7.164 44.8703 6.732 44.8703 5.436C44.8703 4.104 44.1683 3.672 42.5843 3.672H40.6583V7.164ZM48.5615 5.958C48.5615 4.932 49.1375 4.392 50.1635 4.392H56.2655V7.11H51.6575V13.5H48.5615V5.958ZM56.3074 13.5V10.782H58.8634V7.11H56.6314V4.392H60.1414C61.1314 4.392 61.7074 4.896 61.7074 5.904V10.782H64.2814V13.5H56.3074ZM58.2694 2.052C58.2694 1.008 58.9714 0.503999 60.0694 0.503999C61.1674 0.503999 61.9234 1.008 61.9234 2.052C61.9234 3.114 61.1674 3.6 60.0694 3.6C58.9714 3.6 58.2694 3.114 58.2694 2.052ZM64.8034 13.5V4.392H67.8814V5.202L67.3054 6.93H68.0614C68.4214 5.31 69.2314 4.212 71.0134 4.212C72.7414 4.212 73.4434 5.364 73.7134 6.93H74.2534C74.6134 5.31 75.3874 4.212 77.1694 4.212C79.5454 4.212 80.1934 6.39 80.1934 8.856V13.5H77.1154V9.054C77.1154 7.326 76.8454 6.93 75.8374 6.93C74.3254 6.93 74.0374 8.226 74.0374 10.404V13.5H70.9414L70.9594 13.464V9.054C70.9594 7.326 70.6894 6.93 69.6814 6.93C68.1694 6.93 67.8814 8.226 67.8814 10.404V13.5H64.8034ZM80.7951 13.5V10.782H83.3511V7.11H81.1191V4.392H84.6291C85.6191 4.392 86.1951 4.896 86.1951 5.904V10.782H88.7691V13.5H80.7951ZM82.7571 2.052C82.7571 1.008 83.4591 0.503999 84.5571 0.503999C85.6551 0.503999 86.4111 1.008 86.4111 2.052C86.4111 3.114 85.6551 3.6 84.5571 3.6C83.4591 3.6 82.7571 3.114 82.7571 2.052ZM96.0505 10.782V13.5H91.1545C90.1465 13.5 89.5885 12.942 89.5885 11.916V7.11H87.3925V4.392H89.5885V2.772L92.6665 1.8V4.392H95.6905V7.11H92.6665V10.8L96.0505 10.782ZM96.5113 13.5V10.782H99.0673V7.11H96.8353V4.392H100.345C101.335 4.392 101.911 4.896 101.911 5.904V10.782H104.485V13.5H96.5113ZM98.4733 2.052C98.4733 1.008 99.1753 0.503999 100.273 0.503999C101.371 0.503999 102.127 1.008 102.127 2.052C102.127 3.114 101.371 3.6 100.273 3.6C99.1753 3.6 98.4733 3.114 98.4733 2.052ZM111.36 4.392H114.384L112.17 13.5H105.78L103.548 4.392H106.644L108.624 12.726H109.398L111.36 4.392ZM114.086 8.91C114.086 5.976 116.102 4.212 118.928 4.212C122.078 4.212 123.896 5.922 123.896 8.784V9.594H117.182C117.29 10.728 117.956 11.358 119.072 11.358C120.026 11.358 120.674 10.98 120.854 10.278H123.914C123.662 12.294 121.88 13.68 119.072 13.68C115.994 13.68 114.086 11.754 114.086 8.91ZM117.182 8.01H120.89C120.8 7.002 120.098 6.444 119.018 6.444C117.956 6.444 117.254 7.002 117.182 8.01Z" />
		</symbol>
	</defs>
</svg>