<svg xmlns="http://www.w3.org/2000/svg" xmlns:xlink="http://www.w3.org/1999/xlink">
	<defs>
		<!-- Material Symbols -->
		<symbol id="arrow_drop_down" viewBox="0 0 24 24">
			<g>
				<path d="M12 15L7 10H17L12 15Z" />
			</g>
		</symbol>


		<symbol id="arrow_left" viewBox="0 0 24 24">
			<g>
				<path d="M7.825 13L13.425 18.6L12 20L4 12L12 4L13.425 5.4L7.825 11H20V13H7.825Z" />
			</g>
		</symbol>

		<symbol id="arrow_outward" viewBox="0 0 24 24">
			<g>
				<path d="M6.4 18L5 16.6L14.6 7H6V5H18V17H16V8.4L6.4 18Z" />
			</g>
		</symbol>

		<symbol id="arrow_right" viewBox="0 0 24 24">
			<g>
				<path d="M16.175 13.5H4V11.5H16.175L10.575 5.9L12 4.5L20 12.5L12 20.5L10.575 19.1L16.175 13.5Z" />
			</g>
		</symbol>

		<symbol id="check" viewBox="0 0 24 24">
			<g>
				<path d="M9.55 18.0001L3.85 12.3001L5.275 10.8751L9.55 15.1501L18.725 5.9751L20.15 7.4001L9.55 18.0001Z" />
			</g>
		</symbol>

		<symbol id="close" viewBox="0 0 24 24">
			<g>
				<path d="M6.4 19L5 17.6L10.6 12L5 6.4L6.4 5L12 10.6L17.6 5L19 6.4L13.4 12L19 17.6L17.6 19L12 13.4L6.4 19Z" />
			</g>
		</symbol>

		<symbol id="chevron_down" viewBox="0 0 24 24">
			<g>
				<path d="M12 15.3751L6 9.3751L7.4 7.9751L12 12.5751L16.6 7.9751L18 9.3751L12 15.3751Z" />
			</g>
		</symbol>

		<symbol id="chevron_up" viewBox="0 0 24 24">
			<g>
				<path d="M7.4 15.3751L6 13.9751L12 7.9751L18 13.9751L16.6 15.3751L12 10.7751L7.4 15.3751Z" />
			</g>
		</symbol>

		<symbol id="menu" viewBox="0 0 24 24">
			<g>
				<path d="M3 18V16H21V18H3ZM3 13V11H21V13H3ZM3 8V6H21V8H3Z" />
			</g>
		</symbol>

		<symbol id="play" viewBox="0 0 24 24">
			<g>
				<path d="M8 19V5L19 12L8 19Z" />
			</g>
		</symbol>

		<symbol id="search" viewBox="0 0 24 24">
			<g>
				<path
					d="M19.6 21L13.3 14.7C12.8 15.1 12.225 15.4167 11.575 15.65C10.925 15.8833 10.2333 16 9.5 16C7.68333 16 6.14583 15.3708 4.8875 14.1125C3.62917 12.8542 3 11.3167 3 9.5C3 7.68333 3.62917 6.14583 4.8875 4.8875C6.14583 3.62917 7.68333 3 9.5 3C11.3167 3 12.8542 3.62917 14.1125 4.8875C15.3708 6.14583 16 7.68333 16 9.5C16 10.2333 15.8833 10.925 15.65 11.575C15.4167 12.225 15.1 12.8 14.7 13.3L21 19.6L19.6 21ZM9.5 14C10.75 14 11.8125 13.5625 12.6875 12.6875C13.5625 11.8125 14 10.75 14 9.5C14 8.25 13.5625 7.1875 12.6875 6.3125C11.8125 5.4375 10.75 5 9.5 5C8.25 5 7.1875 5.4375 6.3125 6.3125C5.4375 7.1875 5 8.25 5 9.5C5 10.75 5.4375 11.8125 6.3125 12.6875C7.1875 13.5625 8.25 14 9.5 14Z" />
			</g>
		</symbol>

		<!-- Custom -->
		<symbol id="past" viewBox="0 0 50 70">
			<path
				d="M16.7483 0.375916C17.1115 0.37613 17.4747 0.376009 17.8379 0.375581C18.8154 0.375365 19.7929 0.379791 20.7705 0.385102C21.7952 0.389863 22.8199 0.390282 23.8446 0.391179C25.7813 0.393524 27.718 0.399727 29.6547 0.407344C31.8612 0.415832 34.0676 0.419977 36.2741 0.423771C40.8095 0.431668 45.3448 0.44497 49.8802 0.461876C49.9035 5.27123 49.921 10.0806 49.9317 14.89C49.9369 17.1234 49.9438 19.3568 49.9552 21.5901C49.9652 23.5381 49.9716 25.4861 49.9738 27.4342C49.9751 28.4644 49.9781 29.4945 49.9854 30.5247C49.9922 31.4972 49.9942 32.4695 49.9927 33.442C49.993 33.7962 49.9949 34.1504 49.9988 34.5047C50.047 39.1565 48.6438 42.9512 45.4785 46.3355C41.7546 50.0108 37.3862 51.2494 32.2979 51.1888C31.7619 51.1794 31.2259 51.1692 30.6899 51.1585C29.5029 51.1379 28.3157 51.1352 27.1285 51.1294C26.0921 51.1234 25.0565 51.111 24.0203 51.0849C19.3399 50.7152 19.3399 50.7152 15.1143 52.1968C14.4455 52.898 13.9763 53.6493 13.5518 54.5208C13.1273 55.3126 12.5277 55.9515 11.9378 56.6195C11.7122 56.889 11.4873 57.1591 11.2633 57.4299C10.529 58.3104 9.78706 59.1842 9.04546 60.0584C8.17634 61.0834 7.3189 62.1155 6.47968 63.166C5.18127 64.7878 3.82739 66.3598 2.47284 67.9334C2.15547 68.303 1.84008 68.6743 1.52501 69.046C1.36914 69.2295 1.21327 69.413 1.05268 69.602C0.923106 69.7553 0.793534 69.9085 0.660036 70.0664C0.563819 70.1682 0.467603 70.2701 0.36847 70.375C0.286365 70.375 0.204261 70.375 0.119668 70.375C0.0969268 63.2006 0.0793326 56.0262 0.0688469 48.8518C0.0676023 48.0033 0.0663143 47.1549 0.0649993 46.3064C0.0647382 46.1375 0.0644767 45.9686 0.0642077 45.7945C0.0598863 43.0656 0.0520456 40.3366 0.0428851 37.6077C0.033553 34.8041 0.0281199 32.0005 0.0260309 29.1968C0.0247365 27.6235 0.021706 26.0503 0.0144442 24.477C0.00765559 22.9941 0.00561209 21.5113 0.00710188 20.0284C0.00682959 19.4862 0.00487019 18.9439 0.00103329 18.4016C-0.0342888 13.149 0.823359 9.02087 4.52133 5.06708C8.02375 1.61029 11.9371 0.335775 16.7483 0.375916ZM23.8103 6.61573C23.0958 7.42982 22.7801 7.87671 22.6433 8.98479C22.6672 9.34248 22.7002 9.69961 22.7403 10.0558C22.7569 10.2584 22.7735 10.4609 22.7906 10.6696C22.8536 11.3908 22.9307 12.1096 23.0095 12.8292C23.0391 13.1133 23.0686 13.3974 23.0991 13.6902C23.3419 16.0134 23.6089 18.3335 23.8803 20.6534C24.1852 23.2599 24.483 25.8668 24.7511 28.4776C24.7916 28.8669 24.7916 28.8669 24.833 29.2641C24.8995 29.9375 24.9561 30.6108 25.0077 31.2855C25.0267 31.4736 25.0456 31.6618 25.0652 31.8556C25.1292 32.8829 25.0407 33.2236 24.3774 34.0283C24.1723 34.1955 23.9672 34.3628 23.7559 34.5351C22.5119 26.7108 21.2679 18.8866 20.0239 11.0624C19.846 11.2175 19.846 11.2175 19.6645 11.3758C19.5084 11.5117 19.3523 11.6477 19.1914 11.7877C19.0369 11.9224 18.8824 12.057 18.7232 12.1957C18.3749 12.4967 18.0222 12.7926 17.668 13.0865C17.5012 13.2358 17.3345 13.3852 17.1626 13.539C16.9048 13.7601 16.9048 13.7601 16.6417 13.9857C16.0912 14.9459 16.3475 15.825 16.5406 16.8675C16.5855 17.1206 16.6303 17.3738 16.6765 17.6346C16.8406 18.527 17.0158 19.4166 17.1937 20.3063C17.226 20.4692 17.2582 20.632 17.2915 20.7998C17.7676 23.2023 18.2831 25.5941 18.8235 27.9826C19.1456 29.4084 19.4615 30.8357 19.7751 32.2635C19.8376 32.548 19.9002 32.8324 19.9647 33.1254C20.1314 33.899 20.2893 34.6738 20.4437 35.45C20.4928 35.6742 20.5419 35.8983 20.5925 36.1293C20.879 37.6387 20.879 37.6387 20.2931 38.595C20.1221 38.7545 19.9512 38.9139 19.7751 39.0782C19.1178 37.5957 18.6342 36.0876 18.2201 34.5193C17.6597 32.4054 17.0162 30.3253 16.3518 28.243C15.6527 26.0492 14.9733 23.8497 14.3014 21.6472C14.2513 21.4829 14.2011 21.3186 14.1495 21.1493C13.868 20.227 13.5869 19.3045 13.3062 18.3818C12.5054 18.2973 12.5054 18.2973 11.9057 18.9803C11.6605 19.2364 11.4173 19.4945 11.1758 19.7542C9.876 21.1313 9.876 21.1313 9.32536 21.4106C9.61243 22.9196 10.0238 24.3458 10.512 25.8002C11.0261 27.3337 11.5151 28.8746 12 30.4179C12.5503 32.1682 13.1014 33.9183 13.6571 35.6669C13.7567 35.9806 13.8564 36.2944 13.9591 36.6176C14.1511 37.222 14.3434 37.8263 14.5359 38.4306C14.6243 38.709 14.7128 38.9875 14.8039 39.2743C14.8811 39.517 14.9583 39.7597 15.0379 40.0098C15.3837 41.1261 15.7116 42.2481 16.043 43.3688C22.5293 43.3688 29.0156 43.3688 35.6984 43.3688C37.4132 38.1504 37.4132 38.1504 39.0573 32.9103C39.2889 32.1556 39.5209 31.4011 39.7531 30.6466C39.8097 30.4628 39.8663 30.2789 39.9246 30.0895C40.2904 28.9046 40.6673 27.7241 41.0516 26.5452C41.1932 26.1082 41.1932 26.1082 41.3378 25.6623C41.5128 25.1244 41.6899 24.5873 41.8694 24.0509C41.9841 23.6971 41.9841 23.6971 42.1012 23.3361C42.1685 23.1332 42.2357 22.9304 42.3051 22.7214C42.4319 22.0889 42.3987 21.7568 42.1673 21.1582C41.8784 20.7542 41.8784 20.7542 41.5074 20.3971C41.3757 20.2637 41.2441 20.1303 41.1084 19.9928C40.9704 19.8568 40.8323 19.7208 40.69 19.5807C40.5529 19.4408 40.4158 19.3009 40.2745 19.1568C39.6032 18.3844 39.6032 18.3844 38.6841 18.1295C37.5812 21.4373 36.4807 24.7429 35.5109 28.0938C34.9287 30.0978 34.2968 32.0849 33.6589 34.0713C33.1299 35.7286 32.6518 37.3933 32.2152 39.0782C31.5781 38.5538 31.5781 38.5538 30.9712 37.8162C30.9829 37.0145 30.9829 37.0145 31.2132 36.1105C31.2938 35.772 31.3741 35.4334 31.4543 35.0948C31.4983 34.9197 31.5423 34.7446 31.5877 34.5642C31.7995 33.6935 31.9654 32.814 32.1365 31.9342C32.208 31.5774 32.2798 31.2206 32.352 30.8639C32.3881 30.6851 32.4242 30.5064 32.4614 30.3222C32.4982 30.1403 32.535 29.9585 32.5728 29.7711C32.6109 29.583 32.6489 29.3948 32.688 29.201C33.1706 26.8167 33.6773 24.442 34.2455 22.0771C34.5583 20.7015 34.8045 19.316 35.0482 17.9264C35.2008 17.1199 35.2008 17.1199 35.4496 16.3627C35.6259 15.0514 35.6259 15.0514 35.1534 13.8723C34.7442 13.4112 34.3169 12.9931 33.8635 12.5768C33.7134 12.4294 33.5633 12.282 33.4087 12.1302C32.6855 11.3348 32.6855 11.3348 31.7176 11.0624C31.3069 13.4821 30.9205 15.9032 30.5824 18.3345C30.5354 18.6727 30.5354 18.6727 30.4874 19.0176C30.427 19.4521 30.3666 19.8866 30.3063 20.3211C30.0146 22.413 29.6729 24.4854 29.2744 26.559C28.9416 28.3434 28.7108 30.1411 28.4837 31.942C28.4547 32.1695 28.4256 32.3969 28.3957 32.6313C28.3705 32.8342 28.3453 33.0372 28.3193 33.2463C28.2344 33.7779 28.2344 33.7779 27.9855 34.5351C27.3568 34.0217 27.0759 33.7518 26.7415 33.0207C26.6566 31.4815 26.8894 29.9672 27.0991 28.446C27.5006 25.4982 27.7762 22.5431 28.0477 19.5805C28.2949 16.8959 28.5864 14.2341 28.9808 11.5672C29.3288 9.3901 29.3288 9.3901 28.718 7.34503C27.9994 6.43443 27.1742 5.68655 26.2439 5.00497C25.2594 5.00497 24.4823 5.94449 23.8103 6.61573Z" />
		</symbol>

		<symbol id="present" viewBox="0 0 50 70">
			<path
				d="M16.9483 0.000916172C17.3114 0.00113022 17.6746 0.00100895 18.0378 0.000581117C19.0154 0.000365499 19.9929 0.00479069 20.9704 0.0101019C21.9952 0.0148626 23.0199 0.0152822 24.0446 0.0161786C25.9813 0.018524 27.918 0.0247267 29.8547 0.032344C32.0611 0.0408323 34.2676 0.0449768 36.474 0.0487714C41.0094 0.0566678 45.5448 0.0699704 50.0801 0.0868755C50.1034 4.89623 50.1209 9.70558 50.1317 14.515C50.1368 16.7484 50.1438 18.9818 50.1552 21.2151C50.1652 23.1631 50.1715 25.1111 50.1738 27.0592C50.175 28.0894 50.178 29.1195 50.1853 30.1497C50.1922 31.1222 50.1942 32.0945 50.1927 33.067C50.193 33.4212 50.1949 33.7754 50.1988 34.1297C50.2469 38.7815 48.8438 42.5762 45.6785 45.9605C41.9546 49.6358 37.5861 50.8744 32.4978 50.8138C31.9618 50.8044 31.4259 50.7942 30.8899 50.7835C29.7029 50.7629 28.5156 50.7602 27.3285 50.7544C26.292 50.7484 25.2564 50.736 24.2203 50.7099C19.5398 50.3402 19.5398 50.3402 15.3142 51.8218C14.6455 52.523 14.1763 53.2743 13.7518 54.1458C13.3273 54.9376 12.7277 55.5765 12.1377 56.2445C11.9121 56.514 11.6872 56.7841 11.4633 57.0549C10.7289 57.9354 9.98701 58.8092 9.24541 59.6834C8.37629 60.7084 7.51885 61.7405 6.67963 62.791C5.38122 64.4128 4.02734 65.9848 2.6728 67.5584C2.35542 67.928 2.04003 68.2993 1.72496 68.671C1.56909 68.8545 1.41322 69.038 1.25263 69.227C1.12306 69.3803 0.993485 69.5335 0.859987 69.6914C0.76377 69.7932 0.667554 69.8951 0.568421 70C0.486317 70 0.404212 70 0.319619 70C0.296878 62.8256 0.279284 55.6512 0.268798 48.4768C0.267554 47.6283 0.266265 46.7799 0.26495 45.9314C0.264689 45.7625 0.264428 45.5936 0.264159 45.4195C0.259837 42.6906 0.251997 39.9616 0.242836 37.2327C0.233504 34.4291 0.228071 31.6255 0.225982 28.8218C0.224688 27.2485 0.221657 25.6753 0.214395 24.102C0.207607 22.6191 0.205563 21.1363 0.207053 19.6534C0.206781 19.1112 0.204821 18.5689 0.200984 18.0266C0.165662 12.774 1.02331 8.64587 4.72128 4.69208C8.2237 1.23529 12.137 -0.0392249 16.9483 0.000916172ZM11.7811 12.9629C9.30361 15.8959 8.13277 19.8608 8.20355 23.6709C8.55349 27.7134 10.0538 31.3664 13.0085 34.1601C15.7196 36.4385 19.6213 38.4019 23.2094 38.1984C26.6331 37.7266 29.7334 36.7007 32.0108 33.955C32.8922 32.7465 33.5852 31.5075 34.1568 30.1218C34.2363 29.9399 34.3158 29.758 34.3978 29.5706C35.3708 26.934 35.3839 23.1965 34.2501 20.6205C32.763 18.0363 30.7405 16.9609 28.0611 15.893C25.4539 15.4208 22.8873 15.6139 20.6592 17.155C19.1861 18.3711 18.2336 19.9425 17.7358 21.7928C17.5406 23.7778 17.4576 25.7261 18.731 27.3454C19.9996 28.7544 21.6095 30.031 23.5477 30.1612C24.8227 30.0744 25.7176 29.7312 26.6927 28.8598C27.3798 27.7173 27.5351 26.8619 27.5168 25.5313C27.5159 25.2258 27.5149 24.9203 27.5139 24.6056C27.4975 23.7715 27.4975 23.7715 26.9415 23.0547C26.25 22.8011 26.25 22.8011 25.4487 23.0547C24.9604 23.6177 24.5569 24.199 24.157 24.8294C23.7071 25.3263 23.7071 25.3263 23.0782 25.4446C22.3592 25.3063 22.1299 25.177 21.7166 24.5691C21.4165 23.1785 21.7287 21.9119 22.4174 20.6984C22.8776 20.042 23.1991 19.7882 23.9559 19.5212C25.5377 19.3272 27.0419 19.4505 28.4343 20.2784C29.8923 21.623 30.5416 23.4325 30.7697 25.3982C30.8503 27.8067 30.2989 29.5977 28.6831 31.3837C27.2256 32.2096 25.6285 32.8055 23.9559 32.8981C23.6547 32.9215 23.6547 32.9215 23.3475 32.9454C20.4098 33.0813 17.9715 32.0292 15.7454 30.1218C14.0644 28.5304 13.1721 26.5182 12.9493 24.2063C12.8539 20.866 14.0808 17.773 16.2741 15.2936C19.0004 12.6997 22.353 12.3631 25.8996 12.3595C26.2237 12.3533 26.5478 12.3472 26.8817 12.3408C29.9569 12.3314 32.4268 13.004 34.6544 15.2305C37.6484 18.6632 38.3832 22.512 38.194 26.9437C37.8407 31.0434 35.6111 34.7189 32.6639 37.4412C30.7272 39.0422 28.6194 40.1875 26.3759 41.2715C25.4585 41.7167 24.5846 42.2205 23.7071 42.7415C23.7892 42.908 23.8713 43.0746 23.9559 43.2462C29.297 43.4268 33.9743 41.1436 37.8655 37.4895C39.4829 35.7722 40.682 33.8026 41.6208 31.6361C41.6946 31.4682 41.7684 31.3004 41.8444 31.1274C43.5364 26.9467 43.4173 21.3663 41.7044 17.1984C39.9642 13.3001 37.2384 10.5284 33.2821 8.9532C25.5569 6.41418 17.6494 6.7573 11.7811 12.9629Z" />
		</symbol>

		<symbol id="future" viewBox="0 0 50 70">
			<path
				d="M16.9483 0.000916172C17.3114 0.00113022 17.6746 0.00100895 18.0378 0.000581117C19.0154 0.000365499 19.9929 0.00479069 20.9704 0.0101019C21.9952 0.0148626 23.0199 0.0152822 24.0446 0.0161786C25.9813 0.018524 27.918 0.0247267 29.8547 0.032344C32.0611 0.0408323 34.2676 0.0449768 36.474 0.0487714C41.0094 0.0566678 45.5448 0.0699704 50.0801 0.0868755C50.1034 4.89623 50.1209 9.70558 50.1317 14.515C50.1368 16.7484 50.1438 18.9818 50.1552 21.2151C50.1652 23.1631 50.1715 25.1111 50.1738 27.0592C50.175 28.0894 50.178 29.1195 50.1853 30.1497C50.1922 31.1222 50.1942 32.0945 50.1927 33.067C50.193 33.4212 50.1949 33.7754 50.1988 34.1297C50.2469 38.7815 48.8438 42.5762 45.6785 45.9605C41.9546 49.6358 37.5861 50.8744 32.4978 50.8138C31.9618 50.8044 31.4259 50.7942 30.8899 50.7835C29.7029 50.7629 28.5156 50.7602 27.3285 50.7544C26.292 50.7484 25.2564 50.736 24.2203 50.7099C19.5398 50.3402 19.5398 50.3402 15.3142 51.8218C14.6455 52.523 14.1763 53.2743 13.7518 54.1458C13.3273 54.9376 12.7277 55.5765 12.1377 56.2445C11.9121 56.514 11.6872 56.7841 11.4633 57.0549C10.7289 57.9354 9.98701 58.8092 9.24541 59.6834C8.37629 60.7084 7.51885 61.7405 6.67963 62.791C5.38122 64.4128 4.02734 65.9848 2.6728 67.5584C2.35542 67.928 2.04003 68.2993 1.72496 68.671C1.56909 68.8545 1.41322 69.038 1.25263 69.227C1.12306 69.3803 0.993485 69.5335 0.859987 69.6914C0.76377 69.7932 0.667554 69.8951 0.568421 70C0.486317 70 0.404212 70 0.319619 70C0.296878 62.8256 0.279284 55.6512 0.268798 48.4768C0.267554 47.6283 0.266265 46.7799 0.26495 45.9314C0.264689 45.7625 0.264428 45.5936 0.264159 45.4195C0.259837 42.6906 0.251997 39.9616 0.242836 37.2327C0.233504 34.4291 0.228071 31.6255 0.225982 28.8218C0.224688 27.2485 0.221657 25.6753 0.214395 24.102C0.207607 22.6191 0.205563 21.1363 0.207053 19.6534C0.206781 19.1112 0.204821 18.5689 0.200984 18.0266C0.165662 12.774 1.02331 8.64587 4.72128 4.69208C8.2237 1.23529 12.137 -0.0392249 16.9483 0.000916172ZM26.1134 6.72898C25.8698 7.00089 25.6276 7.27409 25.3865 7.54827C25.1161 7.85075 24.8456 8.15309 24.5749 8.45531C24.4331 8.61441 24.2912 8.77351 24.145 8.93742C23.4213 9.7439 22.6851 10.5385 21.9499 11.3342C20.678 12.714 19.4153 14.1017 18.1586 15.4957C17.4542 16.2764 16.7482 17.0555 16.0408 17.8333C15.919 17.9673 15.7972 18.1013 15.6718 18.2393C14.9808 18.9981 14.2871 19.7543 13.5907 20.5081C13.4369 20.6747 13.283 20.8414 13.1245 21.0131C12.8287 21.3332 12.5326 21.653 12.2361 21.9725C11.3031 22.9821 10.4045 24.0158 9.52531 25.0739C9.90499 25.8856 10.2961 26.4085 10.9404 27.0299C11.7786 27.841 12.5355 28.7025 13.2937 29.5892C14.0239 30.4323 14.7834 31.2465 15.5432 32.062C15.8725 32.4169 16.2016 32.7718 16.5307 33.1268C16.6923 33.3012 16.8539 33.4756 17.0205 33.6553C17.6928 34.3828 18.3604 35.1146 19.0265 35.8479C19.147 35.9806 19.2675 36.1133 19.3917 36.25C19.7521 36.647 20.1124 37.0441 20.4726 37.4412C22.6193 39.806 24.7772 42.16 26.9415 44.5082C27.1243 44.3224 27.3071 44.1367 27.4955 43.9453C27.9075 43.5278 28.3205 43.1114 28.7356 42.6971C28.9133 42.5191 29.0909 42.3411 29.274 42.1578C29.5386 41.8938 29.5386 41.8938 29.8085 41.6244C30.3053 41.1006 30.7777 40.5698 31.2469 40.0213C32.1685 38.9446 33.127 37.9074 34.0946 36.8733C35.484 35.382 36.8626 33.8825 38.226 32.3667C38.8185 31.7088 39.4134 31.0535 40.01 30.3995C40.2623 30.1226 40.5141 29.8452 40.7655 29.5675C41.3763 28.8928 41.9917 28.2243 42.6199 27.5663C42.796 27.3786 42.796 27.3786 42.9756 27.1872C43.296 26.846 43.6192 26.5075 43.9427 26.1692C44.4057 25.6296 44.4057 25.6296 44.3625 25.063C44.0285 24.4127 43.6086 23.9993 43.0826 23.4964C42.1964 22.6441 41.3914 21.7508 40.5932 20.8155C39.8182 19.9206 39.0081 19.06 38.1998 18.1961C36.8206 16.7161 35.4536 15.2267 34.1004 13.7221C33.1507 12.6686 32.1878 11.6275 31.2252 10.5862C30.5148 9.81655 29.8091 9.04361 29.1146 8.25912C28.9889 8.11759 28.8632 7.97606 28.7336 7.83024C28.3931 7.44573 28.054 7.05979 27.7151 6.67377C26.9654 5.91742 26.8621 5.97335 26.1134 6.72898Z" />

			<path
				d="M26.6927 14.2209C27.5538 14.5956 28.1072 15.0908 28.7609 15.7668C28.9395 15.9497 29.1181 16.1325 29.3022 16.3209C29.7986 16.8582 30.2784 17.4019 30.7542 17.9575C31.6554 19.009 32.5904 20.0242 33.5348 21.0356C34.7679 22.3561 35.9708 23.6967 37.1424 25.0739C36.7391 25.9431 36.2902 26.489 35.6029 27.1561C34.7246 28.0112 33.9225 28.9083 33.1263 29.8405C32.2208 30.8857 31.2697 31.8881 30.3266 32.8981C29.2532 34.0523 28.2122 35.2304 27.1903 36.4316C25.8737 35.3275 24.6962 34.1527 23.536 32.8823C23.3633 32.6946 23.1906 32.5069 23.0127 32.3135C22.4968 31.7521 21.9822 31.1894 21.4678 30.6265C21.1808 30.3137 20.8938 30.0008 20.6067 29.688C19.2946 28.2547 17.9963 26.8109 16.7406 25.3263C18.1026 23.6833 19.5351 22.1077 20.9702 20.5308C21.093 20.3958 21.2157 20.2609 21.3422 20.1219C21.8394 19.5754 22.3367 19.029 22.8342 18.4827C24.1243 17.0658 25.4089 15.6438 26.6927 14.2209ZM26.2767 18.9306C26.1061 19.1307 25.9355 19.3308 25.7597 19.537C25.0316 20.3808 24.2956 21.2094 23.5311 22.0195C23.2936 22.2723 23.2936 22.2723 23.0513 22.5302C22.734 22.8669 22.4154 23.2023 22.0954 23.5364C21.9496 23.6921 21.8037 23.8477 21.6535 24.0081C21.4559 24.216 21.4559 24.216 21.2544 24.428C20.8967 24.842 20.8967 24.842 20.9702 25.5787C21.397 26.1038 21.827 26.589 22.292 27.0773C22.5645 27.3697 22.837 27.6621 23.1093 27.9547C23.3192 28.1784 23.3192 28.1784 23.5332 28.4065C24.2011 29.1227 24.8558 29.851 25.5109 30.5792C25.7402 30.8333 25.9696 31.0873 26.199 31.3413C26.3619 31.5219 26.5248 31.7025 26.6927 31.8885C28.7411 30.9973 30.2522 28.7832 31.6687 27.093C31.9538 26.7565 32.2389 26.42 32.524 26.0835C32.8396 25.7086 32.8396 25.7086 33.1616 25.3263C32.1591 23.8574 31.0339 22.6278 29.7798 21.3841C29.0759 20.6842 28.4086 19.9786 27.7812 19.2057C27.5862 18.9767 27.3912 18.7476 27.1903 18.5116C26.6538 18.4524 26.6538 18.4524 26.2767 18.9306Z" />
		</symbol>


		<!-- Social Media Logos -->
		<symbol id="facebook" viewBox="0 0 24 24">
			<g>
				<path
					d="M22 12.0607C22 6.504 17.5233 2 12 2C6.47667 2 2 6.504 2 12.0607C2 17.0833 5.656 21.2453 10.4373 22V14.9693H7.89867V12.06H10.4373V9.844C10.4373 7.32267 11.93 5.92933 14.2147 5.92933C15.308 5.92933 16.4533 6.126 16.4533 6.126V8.602H15.1913C13.9493 8.602 13.5627 9.378 13.5627 10.174V12.0607H16.336L15.8927 14.9687H13.5627V22C18.344 21.2453 22 17.0833 22 12.0607Z" />
			</g>
		</symbol>


		<symbol id="instagram" viewBox="0 0 24 24">
			<g>
				<path fill-rule="evenodd" clip-rule="evenodd"
					d="M12 3C9.5556 3 9.2496 3.0102 8.2896 3.054C7.3314 3.0978 6.6768 3.2502 6.1044 3.4728C5.5044 3.6984 4.9602 4.0524 4.5102 4.5108C4.05253 4.96028 3.69831 5.5041 3.4722 6.1044C3.2508 6.6768 3.0978 7.332 3.054 8.2902C3.0108 9.2496 3 9.555 3 12C3 14.445 3.0102 14.7504 3.054 15.7104C3.0978 16.6686 3.2502 17.3232 3.4728 17.8956C3.6984 18.4956 4.0524 19.0398 4.5108 19.4898C4.96029 19.9475 5.50411 20.3017 6.1044 20.5278C6.6768 20.7498 7.3314 20.9022 8.2896 20.946C9.2496 20.9898 9.5556 21 12 21C14.4444 21 14.7504 20.9898 15.7104 20.946C16.6686 20.9022 17.3232 20.7498 17.8956 20.5272C18.4956 20.3016 19.0398 19.9476 19.4898 19.4892C19.9475 19.0397 20.3017 18.4959 20.5278 17.8956C20.7498 17.3232 20.9022 16.6686 20.946 15.7104C20.9898 14.7504 21 14.4444 21 12C21 9.5556 20.9898 9.2496 20.946 8.2896C20.9022 7.3314 20.7498 6.6768 20.5272 6.1044C20.3012 5.50384 19.947 4.95979 19.4892 4.5102C19.0397 4.05253 18.4959 3.69831 17.8956 3.4722C17.3232 3.2508 16.668 3.0978 15.7098 3.054C14.7504 3.0108 14.445 3 12 3ZM12 4.6218C14.403 4.6218 14.688 4.6308 15.6372 4.674C16.5144 4.7142 16.9908 4.86 17.3082 4.9842C17.7282 5.1468 18.0282 5.3424 18.3432 5.6568C18.6582 5.9718 18.8532 6.2718 19.0158 6.6918C19.1394 7.0092 19.2858 7.4856 19.326 8.3628C19.3692 9.312 19.3782 9.597 19.3782 12C19.3782 14.403 19.3692 14.688 19.326 15.6372C19.2858 16.5144 19.14 16.9908 19.0158 17.3082C18.8718 17.6991 18.6419 18.0528 18.3432 18.3432C18.0528 18.642 17.6992 18.8718 17.3082 19.0158C16.9908 19.1394 16.5144 19.2858 15.6372 19.326C14.688 19.3692 14.4036 19.3782 12 19.3782C9.5964 19.3782 9.312 19.3692 8.3628 19.326C7.4856 19.2858 7.0092 19.14 6.6918 19.0158C6.30087 18.8718 5.9472 18.6419 5.6568 18.3432C5.35811 18.0528 5.12828 17.6991 4.9842 17.3082C4.8606 16.9908 4.7142 16.5144 4.674 15.6372C4.6308 14.688 4.6218 14.403 4.6218 12C4.6218 9.597 4.6308 9.312 4.674 8.3628C4.7142 7.4856 4.86 7.0092 4.9842 6.6918C5.1468 6.2718 5.3424 5.9718 5.6568 5.6568C5.94716 5.35803 6.30085 5.12819 6.6918 4.9842C7.0092 4.8606 7.4856 4.7142 8.3628 4.674C9.312 4.6308 9.597 4.6218 12 4.6218Z" />
				<path fill-rule="evenodd" clip-rule="evenodd"
					d="M12 15.003C11.6056 15.003 11.2151 14.9253 10.8508 14.7744C10.4865 14.6235 10.1554 14.4023 9.87656 14.1234C9.5977 13.8446 9.3765 13.5135 9.22559 13.1492C9.07467 12.7849 8.997 12.3944 8.997 12C8.997 11.6056 9.07467 11.2151 9.22559 10.8508C9.3765 10.4865 9.5977 10.1554 9.87656 9.87656C10.1554 9.59771 10.4865 9.37651 10.8508 9.22559C11.2151 9.07468 11.6056 8.997 12 8.997C12.7964 8.997 13.5603 9.31339 14.1234 9.87656C14.6866 10.4397 15.003 11.2036 15.003 12C15.003 12.7964 14.6866 13.5603 14.1234 14.1234C13.5603 14.6866 12.7964 15.003 12 15.003ZM12 7.374C10.7731 7.374 9.59647 7.86138 8.72892 8.72893C7.86138 9.59647 7.374 10.7731 7.374 12C7.374 13.2269 7.86138 14.4035 8.72892 15.2711C9.59647 16.1386 10.7731 16.626 12 16.626C13.2269 16.626 14.4035 16.1386 15.2711 15.2711C16.1386 14.4035 16.626 13.2269 16.626 12C16.626 10.7731 16.1386 9.59647 15.2711 8.72893C14.4035 7.86138 13.2269 7.374 12 7.374ZM17.9718 7.29C17.9718 7.58002 17.8566 7.85815 17.6515 8.06322C17.4464 8.2683 17.1683 8.3835 16.8783 8.3835C16.5883 8.3835 16.3101 8.2683 16.1051 8.06322C15.9 7.85815 15.7848 7.58002 15.7848 7.29C15.7848 6.99999 15.9 6.72185 16.1051 6.51678C16.3101 6.31171 16.5883 6.1965 16.8783 6.1965C17.1683 6.1965 17.4464 6.31171 17.6515 6.51678C17.8566 6.72185 17.9718 6.99999 17.9718 7.29Z" />
			</g>
		</symbol>

		<symbol id="twitter" viewBox="0 0 24 24">
			<g>
				<path
					d="M19.9525 7.9201C19.9647 8.09642 19.9647 8.27273 19.9647 8.45067C19.9647 13.8726 15.8371 20.1257 8.28966 20.1257V20.1224C6.06013 20.1257 3.8769 19.487 2 18.2829C2.32419 18.3219 2.65001 18.3414 2.97664 18.3422C4.82429 18.3438 6.61913 17.7239 8.07272 16.5823C6.31688 16.549 4.77717 15.4042 4.23928 13.7328C4.85436 13.8514 5.48812 13.8271 6.09181 13.6621C4.17753 13.2754 2.80033 11.5935 2.80033 9.64019C2.80033 9.62232 2.80033 9.60525 2.80033 9.58819C3.37071 9.90588 4.00934 10.0822 4.6626 10.1017C2.85964 8.89674 2.30388 6.49821 3.39265 4.62293C5.47593 7.1864 8.54966 8.7448 11.8493 8.90974C11.5186 7.4846 11.9703 5.9912 13.0364 4.98937C14.689 3.43585 17.2882 3.51547 18.8418 5.16731C19.7607 4.98612 20.6415 4.64893 21.4475 4.17117C21.1412 5.121 20.5001 5.92782 19.6437 6.44052C20.457 6.34464 21.2517 6.12689 22 5.79457C21.4491 6.62008 20.7552 7.33916 19.9525 7.9201Z" />
			</g>
		</symbol>

		<!-- Logos -->
		<symbol id="not_primitive" viewBox="0 0 124 14">
			<path
				d="M0.0260001 13.5V0.809999H6.452L9.584 12.69H10.394L9.764 10.692V0.809999H13.04V13.5H6.614L3.482 1.62H2.672L3.302 3.618V13.5H0.0260001ZM13.6718 8.928C13.6718 5.706 15.9938 4.212 18.8558 4.212C21.6818 4.212 24.0218 5.706 24.0218 8.928C24.0218 12.186 21.6818 13.68 18.8558 13.68C15.9938 13.68 13.6718 12.186 13.6718 8.928ZM16.7498 8.928C16.7498 10.296 17.5958 10.962 18.8558 10.962C20.0798 10.962 20.9258 10.296 20.9258 8.928C20.9258 7.578 20.0798 6.93 18.8558 6.93C17.5958 6.93 16.7498 7.578 16.7498 8.928ZM32.3952 10.782V13.5H27.4992C26.4912 13.5 25.9332 12.942 25.9332 11.916V7.11H23.7372V4.392H25.9332V2.772L29.0112 1.8V4.392H32.0352V7.11H29.0112V10.8L32.3952 10.782ZM37.3823 13.5V0.809999H42.3863C46.3643 0.809999 48.1283 2.142 48.1283 5.436C48.1283 8.694 46.3643 10.026 42.3863 10.026H40.6583V13.5H37.3823ZM40.6583 7.164H42.5843C44.1683 7.164 44.8703 6.732 44.8703 5.436C44.8703 4.104 44.1683 3.672 42.5843 3.672H40.6583V7.164ZM48.5615 5.958C48.5615 4.932 49.1375 4.392 50.1635 4.392H56.2655V7.11H51.6575V13.5H48.5615V5.958ZM56.3074 13.5V10.782H58.8634V7.11H56.6314V4.392H60.1414C61.1314 4.392 61.7074 4.896 61.7074 5.904V10.782H64.2814V13.5H56.3074ZM58.2694 2.052C58.2694 1.008 58.9714 0.503999 60.0694 0.503999C61.1674 0.503999 61.9234 1.008 61.9234 2.052C61.9234 3.114 61.1674 3.6 60.0694 3.6C58.9714 3.6 58.2694 3.114 58.2694 2.052ZM64.8034 13.5V4.392H67.8814V5.202L67.3054 6.93H68.0614C68.4214 5.31 69.2314 4.212 71.0134 4.212C72.7414 4.212 73.4434 5.364 73.7134 6.93H74.2534C74.6134 5.31 75.3874 4.212 77.1694 4.212C79.5454 4.212 80.1934 6.39 80.1934 8.856V13.5H77.1154V9.054C77.1154 7.326 76.8454 6.93 75.8374 6.93C74.3254 6.93 74.0374 8.226 74.0374 10.404V13.5H70.9414L70.9594 13.464V9.054C70.9594 7.326 70.6894 6.93 69.6814 6.93C68.1694 6.93 67.8814 8.226 67.8814 10.404V13.5H64.8034ZM80.7951 13.5V10.782H83.3511V7.11H81.1191V4.392H84.6291C85.6191 4.392 86.1951 4.896 86.1951 5.904V10.782H88.7691V13.5H80.7951ZM82.7571 2.052C82.7571 1.008 83.4591 0.503999 84.5571 0.503999C85.6551 0.503999 86.4111 1.008 86.4111 2.052C86.4111 3.114 85.6551 3.6 84.5571 3.6C83.4591 3.6 82.7571 3.114 82.7571 2.052ZM96.0505 10.782V13.5H91.1545C90.1465 13.5 89.5885 12.942 89.5885 11.916V7.11H87.3925V4.392H89.5885V2.772L92.6665 1.8V4.392H95.6905V7.11H92.6665V10.8L96.0505 10.782ZM96.5113 13.5V10.782H99.0673V7.11H96.8353V4.392H100.345C101.335 4.392 101.911 4.896 101.911 5.904V10.782H104.485V13.5H96.5113ZM98.4733 2.052C98.4733 1.008 99.1753 0.503999 100.273 0.503999C101.371 0.503999 102.127 1.008 102.127 2.052C102.127 3.114 101.371 3.6 100.273 3.6C99.1753 3.6 98.4733 3.114 98.4733 2.052ZM111.36 4.392H114.384L112.17 13.5H105.78L103.548 4.392H106.644L108.624 12.726H109.398L111.36 4.392ZM114.086 8.91C114.086 5.976 116.102 4.212 118.928 4.212C122.078 4.212 123.896 5.922 123.896 8.784V9.594H117.182C117.29 10.728 117.956 11.358 119.072 11.358C120.026 11.358 120.674 10.98 120.854 10.278H123.914C123.662 12.294 121.88 13.68 119.072 13.68C115.994 13.68 114.086 11.754 114.086 8.91ZM117.182 8.01H120.89C120.8 7.002 120.098 6.444 119.018 6.444C117.956 6.444 117.254 7.002 117.182 8.01Z" />
		</symbol>
	</defs>
</svg>